<mxfile host="app.diagrams.net" modified="2021-07-10T13:06:12.335Z" agent="5.0 (Macintosh; Intel Mac OS X 10_15_7) AppleWebKit/537.36 (KHTML, like Gecko) Chrome/90.0.4430.212 Safari/537.36 Edg/90.0.818.62" etag="GKHqV-w4-3JFx-ICk-oW" version="14.8.5" type="github">
  <diagram id="Sa2HXYijyftGPRhnm3Lv" name="第 1 页">
    <mxGraphModel dx="1198" dy="601" grid="0" gridSize="10" guides="1" tooltips="1" connect="1" arrows="1" fold="1" page="0" pageScale="1" pageWidth="1200" pageHeight="1920" math="1" shadow="0">
      <root>
        <mxCell id="0" />
        <mxCell id="1" parent="0" />
        <mxCell id="SA2f0OlAAsZFch_WnKpL-2" style="rounded=0;orthogonalLoop=1;jettySize=auto;html=1;endArrow=none;endFill=0;" edge="1" parent="1" source="SA2f0OlAAsZFch_WnKpL-1" target="SA2f0OlAAsZFch_WnKpL-4">
          <mxGeometry relative="1" as="geometry">
            <mxPoint x="346" y="267" as="targetPoint" />
          </mxGeometry>
        </mxCell>
        <mxCell id="SA2f0OlAAsZFch_WnKpL-3" value="2" style="edgeLabel;html=1;align=center;verticalAlign=middle;resizable=0;points=[];" vertex="1" connectable="0" parent="SA2f0OlAAsZFch_WnKpL-2">
          <mxGeometry x="0.16" y="2" relative="1" as="geometry">
            <mxPoint x="-11" y="-8" as="offset" />
          </mxGeometry>
        </mxCell>
        <mxCell id="SA2f0OlAAsZFch_WnKpL-1" value="&lt;font style=&quot;font-size: 12px&quot;&gt;A&lt;/font&gt;" style="ellipse;whiteSpace=wrap;html=1;aspect=fixed;" vertex="1" parent="1">
          <mxGeometry x="260" y="281" width="29" height="29" as="geometry" />
        </mxCell>
        <mxCell id="SA2f0OlAAsZFch_WnKpL-6" value="" style="edgeStyle=none;rounded=0;orthogonalLoop=1;jettySize=auto;html=1;endArrow=none;endFill=0;" edge="1" parent="1" source="SA2f0OlAAsZFch_WnKpL-4" target="SA2f0OlAAsZFch_WnKpL-5">
          <mxGeometry relative="1" as="geometry" />
        </mxCell>
        <mxCell id="SA2f0OlAAsZFch_WnKpL-19" value="3" style="edgeLabel;html=1;align=center;verticalAlign=middle;resizable=0;points=[];" vertex="1" connectable="0" parent="SA2f0OlAAsZFch_WnKpL-6">
          <mxGeometry x="0.1281" y="1" relative="1" as="geometry">
            <mxPoint x="3" y="-12" as="offset" />
          </mxGeometry>
        </mxCell>
        <mxCell id="SA2f0OlAAsZFch_WnKpL-17" value="" style="edgeStyle=none;rounded=0;orthogonalLoop=1;jettySize=auto;html=1;endArrow=none;endFill=0;" edge="1" parent="1" source="SA2f0OlAAsZFch_WnKpL-4" target="SA2f0OlAAsZFch_WnKpL-10">
          <mxGeometry relative="1" as="geometry" />
        </mxCell>
        <mxCell id="SA2f0OlAAsZFch_WnKpL-18" value="1" style="edgeLabel;html=1;align=center;verticalAlign=middle;resizable=0;points=[];" vertex="1" connectable="0" parent="SA2f0OlAAsZFch_WnKpL-17">
          <mxGeometry x="-0.0103" y="1" relative="1" as="geometry">
            <mxPoint x="-8" y="-5" as="offset" />
          </mxGeometry>
        </mxCell>
        <mxCell id="SA2f0OlAAsZFch_WnKpL-4" value="B" style="ellipse;whiteSpace=wrap;html=1;aspect=fixed;" vertex="1" parent="1">
          <mxGeometry x="339" y="252" width="29" height="29" as="geometry" />
        </mxCell>
        <mxCell id="SA2f0OlAAsZFch_WnKpL-11" style="edgeStyle=none;rounded=0;orthogonalLoop=1;jettySize=auto;html=1;exitX=0.5;exitY=1;exitDx=0;exitDy=0;entryX=0.367;entryY=0.03;entryDx=0;entryDy=0;endArrow=none;endFill=0;entryPerimeter=0;" edge="1" parent="1" source="SA2f0OlAAsZFch_WnKpL-5" target="SA2f0OlAAsZFch_WnKpL-7">
          <mxGeometry relative="1" as="geometry" />
        </mxCell>
        <mxCell id="SA2f0OlAAsZFch_WnKpL-20" value="5" style="edgeLabel;html=1;align=center;verticalAlign=middle;resizable=0;points=[];" vertex="1" connectable="0" parent="SA2f0OlAAsZFch_WnKpL-11">
          <mxGeometry x="0.2637" relative="1" as="geometry">
            <mxPoint x="7" y="-6" as="offset" />
          </mxGeometry>
        </mxCell>
        <mxCell id="SA2f0OlAAsZFch_WnKpL-5" value="E" style="ellipse;whiteSpace=wrap;html=1;aspect=fixed;" vertex="1" parent="1">
          <mxGeometry x="414" y="263" width="29" height="29" as="geometry" />
        </mxCell>
        <mxCell id="SA2f0OlAAsZFch_WnKpL-12" value="" style="edgeStyle=none;rounded=0;orthogonalLoop=1;jettySize=auto;html=1;endArrow=none;endFill=0;" edge="1" parent="1" source="SA2f0OlAAsZFch_WnKpL-7" target="SA2f0OlAAsZFch_WnKpL-8">
          <mxGeometry relative="1" as="geometry" />
        </mxCell>
        <mxCell id="SA2f0OlAAsZFch_WnKpL-21" value="8" style="edgeLabel;html=1;align=center;verticalAlign=middle;resizable=0;points=[];" vertex="1" connectable="0" parent="SA2f0OlAAsZFch_WnKpL-12">
          <mxGeometry x="-0.1766" y="-1" relative="1" as="geometry">
            <mxPoint x="1" y="11" as="offset" />
          </mxGeometry>
        </mxCell>
        <mxCell id="SA2f0OlAAsZFch_WnKpL-7" value="F" style="ellipse;whiteSpace=wrap;html=1;aspect=fixed;" vertex="1" parent="1">
          <mxGeometry x="429" y="338" width="29" height="29" as="geometry" />
        </mxCell>
        <mxCell id="SA2f0OlAAsZFch_WnKpL-13" value="" style="edgeStyle=none;rounded=0;orthogonalLoop=1;jettySize=auto;html=1;endArrow=none;endFill=0;" edge="1" parent="1" source="SA2f0OlAAsZFch_WnKpL-8" target="SA2f0OlAAsZFch_WnKpL-9">
          <mxGeometry relative="1" as="geometry" />
        </mxCell>
        <mxCell id="SA2f0OlAAsZFch_WnKpL-24" value="5" style="edgeLabel;html=1;align=center;verticalAlign=middle;resizable=0;points=[];" vertex="1" connectable="0" parent="SA2f0OlAAsZFch_WnKpL-13">
          <mxGeometry x="-0.0423" y="-1" relative="1" as="geometry">
            <mxPoint x="-3" y="13" as="offset" />
          </mxGeometry>
        </mxCell>
        <mxCell id="SA2f0OlAAsZFch_WnKpL-15" value="" style="edgeStyle=none;rounded=0;orthogonalLoop=1;jettySize=auto;html=1;endArrow=none;endFill=0;entryX=0.5;entryY=1;entryDx=0;entryDy=0;" edge="1" parent="1" source="SA2f0OlAAsZFch_WnKpL-8" target="SA2f0OlAAsZFch_WnKpL-4">
          <mxGeometry relative="1" as="geometry" />
        </mxCell>
        <mxCell id="SA2f0OlAAsZFch_WnKpL-23" value="7" style="edgeLabel;html=1;align=center;verticalAlign=middle;resizable=0;points=[];" vertex="1" connectable="0" parent="SA2f0OlAAsZFch_WnKpL-15">
          <mxGeometry x="0.0801" y="2" relative="1" as="geometry">
            <mxPoint x="-7" y="8" as="offset" />
          </mxGeometry>
        </mxCell>
        <mxCell id="SA2f0OlAAsZFch_WnKpL-16" value="" style="edgeStyle=none;rounded=0;orthogonalLoop=1;jettySize=auto;html=1;endArrow=none;endFill=0;" edge="1" parent="1" source="SA2f0OlAAsZFch_WnKpL-8" target="SA2f0OlAAsZFch_WnKpL-5">
          <mxGeometry relative="1" as="geometry" />
        </mxCell>
        <mxCell id="SA2f0OlAAsZFch_WnKpL-22" value="1" style="edgeLabel;html=1;align=center;verticalAlign=middle;resizable=0;points=[];" vertex="1" connectable="0" parent="SA2f0OlAAsZFch_WnKpL-16">
          <mxGeometry x="-0.0141" y="2" relative="1" as="geometry">
            <mxPoint x="-5" y="-9" as="offset" />
          </mxGeometry>
        </mxCell>
        <mxCell id="SA2f0OlAAsZFch_WnKpL-8" value="D" style="ellipse;whiteSpace=wrap;html=1;aspect=fixed;" vertex="1" parent="1">
          <mxGeometry x="358" y="344" width="29" height="29" as="geometry" />
        </mxCell>
        <mxCell id="SA2f0OlAAsZFch_WnKpL-14" value="" style="edgeStyle=none;rounded=0;orthogonalLoop=1;jettySize=auto;html=1;endArrow=none;endFill=0;" edge="1" parent="1" source="SA2f0OlAAsZFch_WnKpL-9" target="SA2f0OlAAsZFch_WnKpL-1">
          <mxGeometry relative="1" as="geometry" />
        </mxCell>
        <mxCell id="SA2f0OlAAsZFch_WnKpL-25" value="10" style="edgeLabel;html=1;align=center;verticalAlign=middle;resizable=0;points=[];" vertex="1" connectable="0" parent="SA2f0OlAAsZFch_WnKpL-14">
          <mxGeometry x="-0.0233" y="1" relative="1" as="geometry">
            <mxPoint x="-12" y="3" as="offset" />
          </mxGeometry>
        </mxCell>
        <mxCell id="SA2f0OlAAsZFch_WnKpL-9" value="C" style="ellipse;whiteSpace=wrap;html=1;aspect=fixed;" vertex="1" parent="1">
          <mxGeometry x="270" y="346" width="29" height="29" as="geometry" />
        </mxCell>
        <mxCell id="SA2f0OlAAsZFch_WnKpL-10" value="G" style="ellipse;whiteSpace=wrap;html=1;aspect=fixed;" vertex="1" parent="1">
          <mxGeometry x="372" y="188" width="29" height="29" as="geometry" />
        </mxCell>
        <mxCell id="SA2f0OlAAsZFch_WnKpL-26" value="" style="shape=flexArrow;endArrow=classic;html=1;" edge="1" parent="1">
          <mxGeometry width="50" height="50" relative="1" as="geometry">
            <mxPoint x="534" y="309.31" as="sourcePoint" />
            <mxPoint x="610" y="309.31" as="targetPoint" />
          </mxGeometry>
        </mxCell>
        <mxCell id="SA2f0OlAAsZFch_WnKpL-27" style="rounded=0;orthogonalLoop=1;jettySize=auto;html=1;endArrow=none;endFill=0;" edge="1" parent="1" source="SA2f0OlAAsZFch_WnKpL-29" target="SA2f0OlAAsZFch_WnKpL-34">
          <mxGeometry relative="1" as="geometry">
            <mxPoint x="762" y="281" as="targetPoint" />
          </mxGeometry>
        </mxCell>
        <mxCell id="SA2f0OlAAsZFch_WnKpL-28" value="2" style="edgeLabel;html=1;align=center;verticalAlign=middle;resizable=0;points=[];" vertex="1" connectable="0" parent="SA2f0OlAAsZFch_WnKpL-27">
          <mxGeometry x="0.16" y="2" relative="1" as="geometry">
            <mxPoint x="-11" y="-8" as="offset" />
          </mxGeometry>
        </mxCell>
        <mxCell id="SA2f0OlAAsZFch_WnKpL-29" value="&lt;font style=&quot;font-size: 12px&quot;&gt;A&lt;/font&gt;" style="ellipse;whiteSpace=wrap;html=1;aspect=fixed;" vertex="1" parent="1">
          <mxGeometry x="676" y="295" width="29" height="29" as="geometry" />
        </mxCell>
        <mxCell id="SA2f0OlAAsZFch_WnKpL-30" value="" style="edgeStyle=none;rounded=0;orthogonalLoop=1;jettySize=auto;html=1;endArrow=none;endFill=0;" edge="1" parent="1" source="SA2f0OlAAsZFch_WnKpL-34" target="SA2f0OlAAsZFch_WnKpL-37">
          <mxGeometry relative="1" as="geometry" />
        </mxCell>
        <mxCell id="SA2f0OlAAsZFch_WnKpL-31" value="3" style="edgeLabel;html=1;align=center;verticalAlign=middle;resizable=0;points=[];" vertex="1" connectable="0" parent="SA2f0OlAAsZFch_WnKpL-30">
          <mxGeometry x="0.1281" y="1" relative="1" as="geometry">
            <mxPoint x="3" y="-12" as="offset" />
          </mxGeometry>
        </mxCell>
        <mxCell id="SA2f0OlAAsZFch_WnKpL-32" value="" style="edgeStyle=none;rounded=0;orthogonalLoop=1;jettySize=auto;html=1;endArrow=none;endFill=0;" edge="1" parent="1" source="SA2f0OlAAsZFch_WnKpL-34" target="SA2f0OlAAsZFch_WnKpL-51">
          <mxGeometry relative="1" as="geometry" />
        </mxCell>
        <mxCell id="SA2f0OlAAsZFch_WnKpL-33" value="1" style="edgeLabel;html=1;align=center;verticalAlign=middle;resizable=0;points=[];" vertex="1" connectable="0" parent="SA2f0OlAAsZFch_WnKpL-32">
          <mxGeometry x="-0.0103" y="1" relative="1" as="geometry">
            <mxPoint x="-8" y="-5" as="offset" />
          </mxGeometry>
        </mxCell>
        <mxCell id="SA2f0OlAAsZFch_WnKpL-34" value="B" style="ellipse;whiteSpace=wrap;html=1;aspect=fixed;" vertex="1" parent="1">
          <mxGeometry x="755" y="266" width="29" height="29" as="geometry" />
        </mxCell>
        <mxCell id="SA2f0OlAAsZFch_WnKpL-35" style="edgeStyle=none;rounded=0;orthogonalLoop=1;jettySize=auto;html=1;exitX=0.5;exitY=1;exitDx=0;exitDy=0;entryX=0.367;entryY=0.03;entryDx=0;entryDy=0;endArrow=none;endFill=0;entryPerimeter=0;" edge="1" parent="1" source="SA2f0OlAAsZFch_WnKpL-37" target="SA2f0OlAAsZFch_WnKpL-40">
          <mxGeometry relative="1" as="geometry" />
        </mxCell>
        <mxCell id="SA2f0OlAAsZFch_WnKpL-36" value="5" style="edgeLabel;html=1;align=center;verticalAlign=middle;resizable=0;points=[];" vertex="1" connectable="0" parent="SA2f0OlAAsZFch_WnKpL-35">
          <mxGeometry x="0.2637" relative="1" as="geometry">
            <mxPoint x="7" y="-6" as="offset" />
          </mxGeometry>
        </mxCell>
        <mxCell id="SA2f0OlAAsZFch_WnKpL-37" value="E" style="ellipse;whiteSpace=wrap;html=1;aspect=fixed;" vertex="1" parent="1">
          <mxGeometry x="830" y="277" width="29" height="29" as="geometry" />
        </mxCell>
        <mxCell id="SA2f0OlAAsZFch_WnKpL-40" value="F" style="ellipse;whiteSpace=wrap;html=1;aspect=fixed;" vertex="1" parent="1">
          <mxGeometry x="845" y="352" width="29" height="29" as="geometry" />
        </mxCell>
        <mxCell id="SA2f0OlAAsZFch_WnKpL-41" value="" style="edgeStyle=none;rounded=0;orthogonalLoop=1;jettySize=auto;html=1;endArrow=none;endFill=0;" edge="1" parent="1" source="SA2f0OlAAsZFch_WnKpL-47" target="SA2f0OlAAsZFch_WnKpL-50">
          <mxGeometry relative="1" as="geometry" />
        </mxCell>
        <mxCell id="SA2f0OlAAsZFch_WnKpL-42" value="5" style="edgeLabel;html=1;align=center;verticalAlign=middle;resizable=0;points=[];" vertex="1" connectable="0" parent="SA2f0OlAAsZFch_WnKpL-41">
          <mxGeometry x="-0.0423" y="-1" relative="1" as="geometry">
            <mxPoint x="-3" y="13" as="offset" />
          </mxGeometry>
        </mxCell>
        <mxCell id="SA2f0OlAAsZFch_WnKpL-45" value="" style="edgeStyle=none;rounded=0;orthogonalLoop=1;jettySize=auto;html=1;endArrow=none;endFill=0;" edge="1" parent="1" source="SA2f0OlAAsZFch_WnKpL-47" target="SA2f0OlAAsZFch_WnKpL-37">
          <mxGeometry relative="1" as="geometry" />
        </mxCell>
        <mxCell id="SA2f0OlAAsZFch_WnKpL-46" value="1" style="edgeLabel;html=1;align=center;verticalAlign=middle;resizable=0;points=[];" vertex="1" connectable="0" parent="SA2f0OlAAsZFch_WnKpL-45">
          <mxGeometry x="-0.0141" y="2" relative="1" as="geometry">
            <mxPoint x="-5" y="-9" as="offset" />
          </mxGeometry>
        </mxCell>
        <mxCell id="SA2f0OlAAsZFch_WnKpL-47" value="D" style="ellipse;whiteSpace=wrap;html=1;aspect=fixed;" vertex="1" parent="1">
          <mxGeometry x="774" y="358" width="29" height="29" as="geometry" />
        </mxCell>
        <mxCell id="SA2f0OlAAsZFch_WnKpL-50" value="C" style="ellipse;whiteSpace=wrap;html=1;aspect=fixed;" vertex="1" parent="1">
          <mxGeometry x="686" y="360" width="29" height="29" as="geometry" />
        </mxCell>
        <mxCell id="SA2f0OlAAsZFch_WnKpL-51" value="G" style="ellipse;whiteSpace=wrap;html=1;aspect=fixed;" vertex="1" parent="1">
          <mxGeometry x="788" y="202" width="29" height="29" as="geometry" />
        </mxCell>
        <mxCell id="SA2f0OlAAsZFch_WnKpL-52" style="rounded=0;orthogonalLoop=1;jettySize=auto;html=1;endArrow=none;endFill=0;" edge="1" parent="1" source="SA2f0OlAAsZFch_WnKpL-54" target="SA2f0OlAAsZFch_WnKpL-59">
          <mxGeometry relative="1" as="geometry">
            <mxPoint x="359.5" y="531" as="targetPoint" />
          </mxGeometry>
        </mxCell>
        <mxCell id="SA2f0OlAAsZFch_WnKpL-53" value="2" style="edgeLabel;html=1;align=center;verticalAlign=middle;resizable=0;points=[];" vertex="1" connectable="0" parent="SA2f0OlAAsZFch_WnKpL-52">
          <mxGeometry x="0.16" y="2" relative="1" as="geometry">
            <mxPoint x="-11" y="-8" as="offset" />
          </mxGeometry>
        </mxCell>
        <mxCell id="SA2f0OlAAsZFch_WnKpL-54" value="&lt;font style=&quot;font-size: 12px&quot;&gt;A&lt;/font&gt;" style="ellipse;whiteSpace=wrap;html=1;aspect=fixed;fillColor=#f5f5f5;strokeColor=#666666;fontColor=#333333;" vertex="1" parent="1">
          <mxGeometry x="273.5" y="545" width="29" height="29" as="geometry" />
        </mxCell>
        <mxCell id="SA2f0OlAAsZFch_WnKpL-55" value="" style="edgeStyle=none;rounded=0;orthogonalLoop=1;jettySize=auto;html=1;endArrow=none;endFill=0;" edge="1" parent="1" source="SA2f0OlAAsZFch_WnKpL-59" target="SA2f0OlAAsZFch_WnKpL-62">
          <mxGeometry relative="1" as="geometry" />
        </mxCell>
        <mxCell id="SA2f0OlAAsZFch_WnKpL-56" value="3" style="edgeLabel;html=1;align=center;verticalAlign=middle;resizable=0;points=[];" vertex="1" connectable="0" parent="SA2f0OlAAsZFch_WnKpL-55">
          <mxGeometry x="0.1281" y="1" relative="1" as="geometry">
            <mxPoint x="3" y="-12" as="offset" />
          </mxGeometry>
        </mxCell>
        <mxCell id="SA2f0OlAAsZFch_WnKpL-57" value="" style="edgeStyle=none;rounded=0;orthogonalLoop=1;jettySize=auto;html=1;endArrow=none;endFill=0;" edge="1" parent="1" source="SA2f0OlAAsZFch_WnKpL-59" target="SA2f0OlAAsZFch_WnKpL-76">
          <mxGeometry relative="1" as="geometry" />
        </mxCell>
        <mxCell id="SA2f0OlAAsZFch_WnKpL-58" value="1" style="edgeLabel;html=1;align=center;verticalAlign=middle;resizable=0;points=[];" vertex="1" connectable="0" parent="SA2f0OlAAsZFch_WnKpL-57">
          <mxGeometry x="-0.0103" y="1" relative="1" as="geometry">
            <mxPoint x="-8" y="-5" as="offset" />
          </mxGeometry>
        </mxCell>
        <mxCell id="SA2f0OlAAsZFch_WnKpL-59" value="B" style="ellipse;whiteSpace=wrap;html=1;aspect=fixed;fillColor=#d5e8d4;strokeColor=#82b366;" vertex="1" parent="1">
          <mxGeometry x="352.5" y="516" width="29" height="29" as="geometry" />
        </mxCell>
        <mxCell id="SA2f0OlAAsZFch_WnKpL-60" style="edgeStyle=none;rounded=0;orthogonalLoop=1;jettySize=auto;html=1;exitX=0.5;exitY=1;exitDx=0;exitDy=0;entryX=0.367;entryY=0.03;entryDx=0;entryDy=0;endArrow=none;endFill=0;entryPerimeter=0;" edge="1" parent="1" source="SA2f0OlAAsZFch_WnKpL-62" target="SA2f0OlAAsZFch_WnKpL-65">
          <mxGeometry relative="1" as="geometry" />
        </mxCell>
        <mxCell id="SA2f0OlAAsZFch_WnKpL-61" value="5" style="edgeLabel;html=1;align=center;verticalAlign=middle;resizable=0;points=[];" vertex="1" connectable="0" parent="SA2f0OlAAsZFch_WnKpL-60">
          <mxGeometry x="0.2637" relative="1" as="geometry">
            <mxPoint x="7" y="-6" as="offset" />
          </mxGeometry>
        </mxCell>
        <mxCell id="SA2f0OlAAsZFch_WnKpL-62" value="E" style="ellipse;whiteSpace=wrap;html=1;aspect=fixed;fillColor=#e1d5e7;strokeColor=#9673a6;" vertex="1" parent="1">
          <mxGeometry x="427.5" y="527" width="29" height="29" as="geometry" />
        </mxCell>
        <mxCell id="SA2f0OlAAsZFch_WnKpL-63" value="" style="edgeStyle=none;rounded=0;orthogonalLoop=1;jettySize=auto;html=1;endArrow=none;endFill=0;" edge="1" parent="1" source="SA2f0OlAAsZFch_WnKpL-65" target="SA2f0OlAAsZFch_WnKpL-72">
          <mxGeometry relative="1" as="geometry" />
        </mxCell>
        <mxCell id="SA2f0OlAAsZFch_WnKpL-64" value="8" style="edgeLabel;html=1;align=center;verticalAlign=middle;resizable=0;points=[];" vertex="1" connectable="0" parent="SA2f0OlAAsZFch_WnKpL-63">
          <mxGeometry x="-0.1766" y="-1" relative="1" as="geometry">
            <mxPoint x="1" y="11" as="offset" />
          </mxGeometry>
        </mxCell>
        <mxCell id="SA2f0OlAAsZFch_WnKpL-65" value="F" style="ellipse;whiteSpace=wrap;html=1;aspect=fixed;fillColor=#f8cecc;strokeColor=#b85450;" vertex="1" parent="1">
          <mxGeometry x="442.5" y="602" width="29" height="29" as="geometry" />
        </mxCell>
        <mxCell id="SA2f0OlAAsZFch_WnKpL-66" value="" style="edgeStyle=none;rounded=0;orthogonalLoop=1;jettySize=auto;html=1;endArrow=none;endFill=0;" edge="1" parent="1" source="SA2f0OlAAsZFch_WnKpL-72" target="SA2f0OlAAsZFch_WnKpL-75">
          <mxGeometry relative="1" as="geometry" />
        </mxCell>
        <mxCell id="SA2f0OlAAsZFch_WnKpL-67" value="5" style="edgeLabel;html=1;align=center;verticalAlign=middle;resizable=0;points=[];" vertex="1" connectable="0" parent="SA2f0OlAAsZFch_WnKpL-66">
          <mxGeometry x="-0.0423" y="-1" relative="1" as="geometry">
            <mxPoint x="-3" y="13" as="offset" />
          </mxGeometry>
        </mxCell>
        <mxCell id="SA2f0OlAAsZFch_WnKpL-68" value="" style="edgeStyle=none;rounded=0;orthogonalLoop=1;jettySize=auto;html=1;endArrow=none;endFill=0;entryX=0.5;entryY=1;entryDx=0;entryDy=0;" edge="1" parent="1" source="SA2f0OlAAsZFch_WnKpL-72" target="SA2f0OlAAsZFch_WnKpL-59">
          <mxGeometry relative="1" as="geometry" />
        </mxCell>
        <mxCell id="SA2f0OlAAsZFch_WnKpL-69" value="7" style="edgeLabel;html=1;align=center;verticalAlign=middle;resizable=0;points=[];" vertex="1" connectable="0" parent="SA2f0OlAAsZFch_WnKpL-68">
          <mxGeometry x="0.0801" y="2" relative="1" as="geometry">
            <mxPoint x="-7" y="8" as="offset" />
          </mxGeometry>
        </mxCell>
        <mxCell id="SA2f0OlAAsZFch_WnKpL-70" value="" style="edgeStyle=none;rounded=0;orthogonalLoop=1;jettySize=auto;html=1;endArrow=none;endFill=0;" edge="1" parent="1" source="SA2f0OlAAsZFch_WnKpL-72" target="SA2f0OlAAsZFch_WnKpL-62">
          <mxGeometry relative="1" as="geometry" />
        </mxCell>
        <mxCell id="SA2f0OlAAsZFch_WnKpL-71" value="1" style="edgeLabel;html=1;align=center;verticalAlign=middle;resizable=0;points=[];" vertex="1" connectable="0" parent="SA2f0OlAAsZFch_WnKpL-70">
          <mxGeometry x="-0.0141" y="2" relative="1" as="geometry">
            <mxPoint x="-5" y="-9" as="offset" />
          </mxGeometry>
        </mxCell>
        <mxCell id="SA2f0OlAAsZFch_WnKpL-72" value="D" style="ellipse;whiteSpace=wrap;html=1;aspect=fixed;fillColor=#fff2cc;strokeColor=#d6b656;" vertex="1" parent="1">
          <mxGeometry x="371.5" y="608" width="29" height="29" as="geometry" />
        </mxCell>
        <mxCell id="SA2f0OlAAsZFch_WnKpL-73" value="" style="edgeStyle=none;rounded=0;orthogonalLoop=1;jettySize=auto;html=1;endArrow=none;endFill=0;" edge="1" parent="1" source="SA2f0OlAAsZFch_WnKpL-75" target="SA2f0OlAAsZFch_WnKpL-54">
          <mxGeometry relative="1" as="geometry" />
        </mxCell>
        <mxCell id="SA2f0OlAAsZFch_WnKpL-74" value="10" style="edgeLabel;html=1;align=center;verticalAlign=middle;resizable=0;points=[];" vertex="1" connectable="0" parent="SA2f0OlAAsZFch_WnKpL-73">
          <mxGeometry x="-0.0233" y="1" relative="1" as="geometry">
            <mxPoint x="-12" y="3" as="offset" />
          </mxGeometry>
        </mxCell>
        <mxCell id="SA2f0OlAAsZFch_WnKpL-75" value="C" style="ellipse;whiteSpace=wrap;html=1;aspect=fixed;fillColor=#ffe6cc;strokeColor=#d79b00;" vertex="1" parent="1">
          <mxGeometry x="283.5" y="610" width="29" height="29" as="geometry" />
        </mxCell>
        <mxCell id="SA2f0OlAAsZFch_WnKpL-76" value="G" style="ellipse;whiteSpace=wrap;html=1;aspect=fixed;fillColor=#dae8fc;strokeColor=#6c8ebf;" vertex="1" parent="1">
          <mxGeometry x="385.5" y="452" width="29" height="29" as="geometry" />
        </mxCell>
        <mxCell id="SA2f0OlAAsZFch_WnKpL-77" value="" style="shape=flexArrow;endArrow=classic;html=1;" edge="1" parent="1">
          <mxGeometry width="50" height="50" relative="1" as="geometry">
            <mxPoint x="509.9999999999998" y="574" as="sourcePoint" />
            <mxPoint x="586" y="574" as="targetPoint" />
          </mxGeometry>
        </mxCell>
        <mxCell id="SA2f0OlAAsZFch_WnKpL-78" style="rounded=0;orthogonalLoop=1;jettySize=auto;html=1;endArrow=none;endFill=0;" edge="1" parent="1" source="SA2f0OlAAsZFch_WnKpL-80" target="SA2f0OlAAsZFch_WnKpL-85">
          <mxGeometry relative="1" as="geometry">
            <mxPoint x="705" y="545" as="targetPoint" />
          </mxGeometry>
        </mxCell>
        <mxCell id="SA2f0OlAAsZFch_WnKpL-79" value="2" style="edgeLabel;html=1;align=center;verticalAlign=middle;resizable=0;points=[];" vertex="1" connectable="0" parent="SA2f0OlAAsZFch_WnKpL-78">
          <mxGeometry x="0.16" y="2" relative="1" as="geometry">
            <mxPoint x="-11" y="-8" as="offset" />
          </mxGeometry>
        </mxCell>
        <mxCell id="SA2f0OlAAsZFch_WnKpL-80" value="&lt;font style=&quot;font-size: 12px&quot;&gt;A&lt;/font&gt;" style="ellipse;whiteSpace=wrap;html=1;aspect=fixed;fillColor=#f5f5f5;strokeColor=#666666;fontColor=#333333;" vertex="1" parent="1">
          <mxGeometry x="619" y="559" width="29" height="29" as="geometry" />
        </mxCell>
        <mxCell id="SA2f0OlAAsZFch_WnKpL-81" value="" style="edgeStyle=none;rounded=0;orthogonalLoop=1;jettySize=auto;html=1;endArrow=none;endFill=0;" edge="1" parent="1" source="SA2f0OlAAsZFch_WnKpL-85" target="SA2f0OlAAsZFch_WnKpL-88">
          <mxGeometry relative="1" as="geometry" />
        </mxCell>
        <mxCell id="SA2f0OlAAsZFch_WnKpL-82" value="3" style="edgeLabel;html=1;align=center;verticalAlign=middle;resizable=0;points=[];" vertex="1" connectable="0" parent="SA2f0OlAAsZFch_WnKpL-81">
          <mxGeometry x="0.1281" y="1" relative="1" as="geometry">
            <mxPoint x="3" y="-12" as="offset" />
          </mxGeometry>
        </mxCell>
        <mxCell id="SA2f0OlAAsZFch_WnKpL-83" value="" style="edgeStyle=none;rounded=0;orthogonalLoop=1;jettySize=auto;html=1;endArrow=none;endFill=0;fillColor=#e51400;strokeColor=#B20000;strokeWidth=3;" edge="1" parent="1" source="SA2f0OlAAsZFch_WnKpL-85" target="SA2f0OlAAsZFch_WnKpL-102">
          <mxGeometry relative="1" as="geometry" />
        </mxCell>
        <mxCell id="SA2f0OlAAsZFch_WnKpL-84" value="1" style="edgeLabel;html=1;align=center;verticalAlign=middle;resizable=0;points=[];" vertex="1" connectable="0" parent="SA2f0OlAAsZFch_WnKpL-83">
          <mxGeometry x="-0.0103" y="1" relative="1" as="geometry">
            <mxPoint x="-8" y="-5" as="offset" />
          </mxGeometry>
        </mxCell>
        <mxCell id="SA2f0OlAAsZFch_WnKpL-85" value="B" style="ellipse;whiteSpace=wrap;html=1;aspect=fixed;fillColor=#d5e8d4;strokeColor=#82b366;" vertex="1" parent="1">
          <mxGeometry x="698" y="530" width="29" height="29" as="geometry" />
        </mxCell>
        <mxCell id="SA2f0OlAAsZFch_WnKpL-86" style="edgeStyle=none;rounded=0;orthogonalLoop=1;jettySize=auto;html=1;exitX=0.5;exitY=1;exitDx=0;exitDy=0;entryX=0.367;entryY=0.03;entryDx=0;entryDy=0;endArrow=none;endFill=0;entryPerimeter=0;" edge="1" parent="1" source="SA2f0OlAAsZFch_WnKpL-88" target="SA2f0OlAAsZFch_WnKpL-91">
          <mxGeometry relative="1" as="geometry" />
        </mxCell>
        <mxCell id="SA2f0OlAAsZFch_WnKpL-87" value="5" style="edgeLabel;html=1;align=center;verticalAlign=middle;resizable=0;points=[];" vertex="1" connectable="0" parent="SA2f0OlAAsZFch_WnKpL-86">
          <mxGeometry x="0.2637" relative="1" as="geometry">
            <mxPoint x="7" y="-6" as="offset" />
          </mxGeometry>
        </mxCell>
        <mxCell id="SA2f0OlAAsZFch_WnKpL-88" value="E" style="ellipse;whiteSpace=wrap;html=1;aspect=fixed;fillColor=#e1d5e7;strokeColor=#9673a6;" vertex="1" parent="1">
          <mxGeometry x="773" y="541" width="29" height="29" as="geometry" />
        </mxCell>
        <mxCell id="SA2f0OlAAsZFch_WnKpL-89" value="" style="edgeStyle=none;rounded=0;orthogonalLoop=1;jettySize=auto;html=1;endArrow=none;endFill=0;" edge="1" parent="1" source="SA2f0OlAAsZFch_WnKpL-91" target="SA2f0OlAAsZFch_WnKpL-98">
          <mxGeometry relative="1" as="geometry" />
        </mxCell>
        <mxCell id="SA2f0OlAAsZFch_WnKpL-90" value="8" style="edgeLabel;html=1;align=center;verticalAlign=middle;resizable=0;points=[];" vertex="1" connectable="0" parent="SA2f0OlAAsZFch_WnKpL-89">
          <mxGeometry x="-0.1766" y="-1" relative="1" as="geometry">
            <mxPoint x="1" y="11" as="offset" />
          </mxGeometry>
        </mxCell>
        <mxCell id="SA2f0OlAAsZFch_WnKpL-91" value="F" style="ellipse;whiteSpace=wrap;html=1;aspect=fixed;fillColor=#f8cecc;strokeColor=#b85450;" vertex="1" parent="1">
          <mxGeometry x="788" y="616" width="29" height="29" as="geometry" />
        </mxCell>
        <mxCell id="SA2f0OlAAsZFch_WnKpL-92" value="" style="edgeStyle=none;rounded=0;orthogonalLoop=1;jettySize=auto;html=1;endArrow=none;endFill=0;" edge="1" parent="1" source="SA2f0OlAAsZFch_WnKpL-98" target="SA2f0OlAAsZFch_WnKpL-101">
          <mxGeometry relative="1" as="geometry" />
        </mxCell>
        <mxCell id="SA2f0OlAAsZFch_WnKpL-93" value="5" style="edgeLabel;html=1;align=center;verticalAlign=middle;resizable=0;points=[];" vertex="1" connectable="0" parent="SA2f0OlAAsZFch_WnKpL-92">
          <mxGeometry x="-0.0423" y="-1" relative="1" as="geometry">
            <mxPoint x="-3" y="13" as="offset" />
          </mxGeometry>
        </mxCell>
        <mxCell id="SA2f0OlAAsZFch_WnKpL-94" value="" style="edgeStyle=none;rounded=0;orthogonalLoop=1;jettySize=auto;html=1;endArrow=none;endFill=0;entryX=0.5;entryY=1;entryDx=0;entryDy=0;" edge="1" parent="1" source="SA2f0OlAAsZFch_WnKpL-98" target="SA2f0OlAAsZFch_WnKpL-85">
          <mxGeometry relative="1" as="geometry" />
        </mxCell>
        <mxCell id="SA2f0OlAAsZFch_WnKpL-95" value="7" style="edgeLabel;html=1;align=center;verticalAlign=middle;resizable=0;points=[];" vertex="1" connectable="0" parent="SA2f0OlAAsZFch_WnKpL-94">
          <mxGeometry x="0.0801" y="2" relative="1" as="geometry">
            <mxPoint x="-7" y="8" as="offset" />
          </mxGeometry>
        </mxCell>
        <mxCell id="SA2f0OlAAsZFch_WnKpL-96" value="" style="edgeStyle=none;rounded=0;orthogonalLoop=1;jettySize=auto;html=1;endArrow=none;endFill=0;" edge="1" parent="1" source="SA2f0OlAAsZFch_WnKpL-98" target="SA2f0OlAAsZFch_WnKpL-88">
          <mxGeometry relative="1" as="geometry" />
        </mxCell>
        <mxCell id="SA2f0OlAAsZFch_WnKpL-97" value="1" style="edgeLabel;html=1;align=center;verticalAlign=middle;resizable=0;points=[];" vertex="1" connectable="0" parent="SA2f0OlAAsZFch_WnKpL-96">
          <mxGeometry x="-0.0141" y="2" relative="1" as="geometry">
            <mxPoint x="-5" y="-9" as="offset" />
          </mxGeometry>
        </mxCell>
        <mxCell id="SA2f0OlAAsZFch_WnKpL-98" value="D" style="ellipse;whiteSpace=wrap;html=1;aspect=fixed;fillColor=#fff2cc;strokeColor=#d6b656;" vertex="1" parent="1">
          <mxGeometry x="717" y="622" width="29" height="29" as="geometry" />
        </mxCell>
        <mxCell id="SA2f0OlAAsZFch_WnKpL-99" value="" style="edgeStyle=none;rounded=0;orthogonalLoop=1;jettySize=auto;html=1;endArrow=none;endFill=0;" edge="1" parent="1" source="SA2f0OlAAsZFch_WnKpL-101" target="SA2f0OlAAsZFch_WnKpL-80">
          <mxGeometry relative="1" as="geometry" />
        </mxCell>
        <mxCell id="SA2f0OlAAsZFch_WnKpL-100" value="10" style="edgeLabel;html=1;align=center;verticalAlign=middle;resizable=0;points=[];" vertex="1" connectable="0" parent="SA2f0OlAAsZFch_WnKpL-99">
          <mxGeometry x="-0.0233" y="1" relative="1" as="geometry">
            <mxPoint x="-12" y="3" as="offset" />
          </mxGeometry>
        </mxCell>
        <mxCell id="SA2f0OlAAsZFch_WnKpL-101" value="C" style="ellipse;whiteSpace=wrap;html=1;aspect=fixed;fillColor=#ffe6cc;strokeColor=#d79b00;" vertex="1" parent="1">
          <mxGeometry x="629" y="624" width="29" height="29" as="geometry" />
        </mxCell>
        <mxCell id="SA2f0OlAAsZFch_WnKpL-102" value="G" style="ellipse;whiteSpace=wrap;html=1;aspect=fixed;fillColor=#d5e8d4;strokeColor=#82b366;" vertex="1" parent="1">
          <mxGeometry x="731" y="466" width="29" height="29" as="geometry" />
        </mxCell>
        <mxCell id="SA2f0OlAAsZFch_WnKpL-103" style="rounded=0;orthogonalLoop=1;jettySize=auto;html=1;endArrow=none;endFill=0;" edge="1" parent="1" source="SA2f0OlAAsZFch_WnKpL-105" target="SA2f0OlAAsZFch_WnKpL-110">
          <mxGeometry relative="1" as="geometry">
            <mxPoint x="1071" y="545" as="targetPoint" />
          </mxGeometry>
        </mxCell>
        <mxCell id="SA2f0OlAAsZFch_WnKpL-104" value="2" style="edgeLabel;html=1;align=center;verticalAlign=middle;resizable=0;points=[];" vertex="1" connectable="0" parent="SA2f0OlAAsZFch_WnKpL-103">
          <mxGeometry x="0.16" y="2" relative="1" as="geometry">
            <mxPoint x="-11" y="-8" as="offset" />
          </mxGeometry>
        </mxCell>
        <mxCell id="SA2f0OlAAsZFch_WnKpL-105" value="&lt;font style=&quot;font-size: 12px&quot;&gt;A&lt;/font&gt;" style="ellipse;whiteSpace=wrap;html=1;aspect=fixed;fillColor=#f5f5f5;strokeColor=#666666;fontColor=#333333;" vertex="1" parent="1">
          <mxGeometry x="985" y="559" width="29" height="29" as="geometry" />
        </mxCell>
        <mxCell id="SA2f0OlAAsZFch_WnKpL-106" value="" style="edgeStyle=none;rounded=0;orthogonalLoop=1;jettySize=auto;html=1;endArrow=none;endFill=0;" edge="1" parent="1" source="SA2f0OlAAsZFch_WnKpL-110" target="SA2f0OlAAsZFch_WnKpL-113">
          <mxGeometry relative="1" as="geometry" />
        </mxCell>
        <mxCell id="SA2f0OlAAsZFch_WnKpL-107" value="3" style="edgeLabel;html=1;align=center;verticalAlign=middle;resizable=0;points=[];" vertex="1" connectable="0" parent="SA2f0OlAAsZFch_WnKpL-106">
          <mxGeometry x="0.1281" y="1" relative="1" as="geometry">
            <mxPoint x="3" y="-12" as="offset" />
          </mxGeometry>
        </mxCell>
        <mxCell id="SA2f0OlAAsZFch_WnKpL-108" value="" style="edgeStyle=none;rounded=0;orthogonalLoop=1;jettySize=auto;html=1;endArrow=none;endFill=0;fillColor=#e51400;strokeColor=#B20000;strokeWidth=3;" edge="1" parent="1" source="SA2f0OlAAsZFch_WnKpL-110" target="SA2f0OlAAsZFch_WnKpL-127">
          <mxGeometry relative="1" as="geometry" />
        </mxCell>
        <mxCell id="SA2f0OlAAsZFch_WnKpL-109" value="1" style="edgeLabel;html=1;align=center;verticalAlign=middle;resizable=0;points=[];" vertex="1" connectable="0" parent="SA2f0OlAAsZFch_WnKpL-108">
          <mxGeometry x="-0.0103" y="1" relative="1" as="geometry">
            <mxPoint x="-8" y="-5" as="offset" />
          </mxGeometry>
        </mxCell>
        <mxCell id="SA2f0OlAAsZFch_WnKpL-110" value="B" style="ellipse;whiteSpace=wrap;html=1;aspect=fixed;fillColor=#d5e8d4;strokeColor=#82b366;" vertex="1" parent="1">
          <mxGeometry x="1064" y="530" width="29" height="29" as="geometry" />
        </mxCell>
        <mxCell id="SA2f0OlAAsZFch_WnKpL-111" style="edgeStyle=none;rounded=0;orthogonalLoop=1;jettySize=auto;html=1;exitX=0.5;exitY=1;exitDx=0;exitDy=0;entryX=0.367;entryY=0.03;entryDx=0;entryDy=0;endArrow=none;endFill=0;entryPerimeter=0;" edge="1" parent="1" source="SA2f0OlAAsZFch_WnKpL-113" target="SA2f0OlAAsZFch_WnKpL-116">
          <mxGeometry relative="1" as="geometry" />
        </mxCell>
        <mxCell id="SA2f0OlAAsZFch_WnKpL-112" value="5" style="edgeLabel;html=1;align=center;verticalAlign=middle;resizable=0;points=[];" vertex="1" connectable="0" parent="SA2f0OlAAsZFch_WnKpL-111">
          <mxGeometry x="0.2637" relative="1" as="geometry">
            <mxPoint x="7" y="-6" as="offset" />
          </mxGeometry>
        </mxCell>
        <mxCell id="SA2f0OlAAsZFch_WnKpL-113" value="E" style="ellipse;whiteSpace=wrap;html=1;aspect=fixed;fillColor=#e1d5e7;strokeColor=#9673a6;" vertex="1" parent="1">
          <mxGeometry x="1139" y="541" width="29" height="29" as="geometry" />
        </mxCell>
        <mxCell id="SA2f0OlAAsZFch_WnKpL-114" value="" style="edgeStyle=none;rounded=0;orthogonalLoop=1;jettySize=auto;html=1;endArrow=none;endFill=0;" edge="1" parent="1" source="SA2f0OlAAsZFch_WnKpL-116" target="SA2f0OlAAsZFch_WnKpL-123">
          <mxGeometry relative="1" as="geometry" />
        </mxCell>
        <mxCell id="SA2f0OlAAsZFch_WnKpL-115" value="8" style="edgeLabel;html=1;align=center;verticalAlign=middle;resizable=0;points=[];" vertex="1" connectable="0" parent="SA2f0OlAAsZFch_WnKpL-114">
          <mxGeometry x="-0.1766" y="-1" relative="1" as="geometry">
            <mxPoint x="1" y="11" as="offset" />
          </mxGeometry>
        </mxCell>
        <mxCell id="SA2f0OlAAsZFch_WnKpL-116" value="F" style="ellipse;whiteSpace=wrap;html=1;aspect=fixed;fillColor=#f8cecc;strokeColor=#b85450;" vertex="1" parent="1">
          <mxGeometry x="1154" y="616" width="29" height="29" as="geometry" />
        </mxCell>
        <mxCell id="SA2f0OlAAsZFch_WnKpL-117" value="" style="edgeStyle=none;rounded=0;orthogonalLoop=1;jettySize=auto;html=1;endArrow=none;endFill=0;" edge="1" parent="1" source="SA2f0OlAAsZFch_WnKpL-123" target="SA2f0OlAAsZFch_WnKpL-126">
          <mxGeometry relative="1" as="geometry" />
        </mxCell>
        <mxCell id="SA2f0OlAAsZFch_WnKpL-118" value="5" style="edgeLabel;html=1;align=center;verticalAlign=middle;resizable=0;points=[];" vertex="1" connectable="0" parent="SA2f0OlAAsZFch_WnKpL-117">
          <mxGeometry x="-0.0423" y="-1" relative="1" as="geometry">
            <mxPoint x="-3" y="13" as="offset" />
          </mxGeometry>
        </mxCell>
        <mxCell id="SA2f0OlAAsZFch_WnKpL-119" value="" style="edgeStyle=none;rounded=0;orthogonalLoop=1;jettySize=auto;html=1;endArrow=none;endFill=0;entryX=0.5;entryY=1;entryDx=0;entryDy=0;" edge="1" parent="1" source="SA2f0OlAAsZFch_WnKpL-123" target="SA2f0OlAAsZFch_WnKpL-110">
          <mxGeometry relative="1" as="geometry" />
        </mxCell>
        <mxCell id="SA2f0OlAAsZFch_WnKpL-120" value="7" style="edgeLabel;html=1;align=center;verticalAlign=middle;resizable=0;points=[];" vertex="1" connectable="0" parent="SA2f0OlAAsZFch_WnKpL-119">
          <mxGeometry x="0.0801" y="2" relative="1" as="geometry">
            <mxPoint x="-7" y="8" as="offset" />
          </mxGeometry>
        </mxCell>
        <mxCell id="SA2f0OlAAsZFch_WnKpL-121" value="" style="edgeStyle=none;rounded=0;orthogonalLoop=1;jettySize=auto;html=1;endArrow=none;endFill=0;strokeWidth=3;fillColor=#e51400;strokeColor=#B20000;" edge="1" parent="1" source="SA2f0OlAAsZFch_WnKpL-123" target="SA2f0OlAAsZFch_WnKpL-113">
          <mxGeometry relative="1" as="geometry" />
        </mxCell>
        <mxCell id="SA2f0OlAAsZFch_WnKpL-122" value="1" style="edgeLabel;html=1;align=center;verticalAlign=middle;resizable=0;points=[];" vertex="1" connectable="0" parent="SA2f0OlAAsZFch_WnKpL-121">
          <mxGeometry x="-0.0141" y="2" relative="1" as="geometry">
            <mxPoint x="-5" y="-9" as="offset" />
          </mxGeometry>
        </mxCell>
        <mxCell id="SA2f0OlAAsZFch_WnKpL-123" value="D" style="ellipse;whiteSpace=wrap;html=1;aspect=fixed;fillColor=#e1d5e7;strokeColor=#9673a6;" vertex="1" parent="1">
          <mxGeometry x="1083" y="622" width="29" height="29" as="geometry" />
        </mxCell>
        <mxCell id="SA2f0OlAAsZFch_WnKpL-124" value="" style="edgeStyle=none;rounded=0;orthogonalLoop=1;jettySize=auto;html=1;endArrow=none;endFill=0;" edge="1" parent="1" source="SA2f0OlAAsZFch_WnKpL-126" target="SA2f0OlAAsZFch_WnKpL-105">
          <mxGeometry relative="1" as="geometry" />
        </mxCell>
        <mxCell id="SA2f0OlAAsZFch_WnKpL-125" value="10" style="edgeLabel;html=1;align=center;verticalAlign=middle;resizable=0;points=[];" vertex="1" connectable="0" parent="SA2f0OlAAsZFch_WnKpL-124">
          <mxGeometry x="-0.0233" y="1" relative="1" as="geometry">
            <mxPoint x="-12" y="3" as="offset" />
          </mxGeometry>
        </mxCell>
        <mxCell id="SA2f0OlAAsZFch_WnKpL-126" value="C" style="ellipse;whiteSpace=wrap;html=1;aspect=fixed;fillColor=#ffe6cc;strokeColor=#d79b00;" vertex="1" parent="1">
          <mxGeometry x="995" y="624" width="29" height="29" as="geometry" />
        </mxCell>
        <mxCell id="SA2f0OlAAsZFch_WnKpL-127" value="G" style="ellipse;whiteSpace=wrap;html=1;aspect=fixed;fillColor=#d5e8d4;strokeColor=#82b366;" vertex="1" parent="1">
          <mxGeometry x="1097" y="466" width="29" height="29" as="geometry" />
        </mxCell>
        <mxCell id="SA2f0OlAAsZFch_WnKpL-128" value="" style="shape=flexArrow;endArrow=classic;html=1;" edge="1" parent="1">
          <mxGeometry width="50" height="50" relative="1" as="geometry">
            <mxPoint x="865.9999999999998" y="573" as="sourcePoint" />
            <mxPoint x="947" y="573" as="targetPoint" />
          </mxGeometry>
        </mxCell>
        <mxCell id="SA2f0OlAAsZFch_WnKpL-129" style="rounded=0;orthogonalLoop=1;jettySize=auto;html=1;endArrow=none;endFill=0;strokeWidth=3;fillColor=#e51400;strokeColor=#B20000;" edge="1" parent="1" source="SA2f0OlAAsZFch_WnKpL-131" target="SA2f0OlAAsZFch_WnKpL-136">
          <mxGeometry relative="1" as="geometry">
            <mxPoint x="1406" y="545" as="targetPoint" />
          </mxGeometry>
        </mxCell>
        <mxCell id="SA2f0OlAAsZFch_WnKpL-130" value="2" style="edgeLabel;html=1;align=center;verticalAlign=middle;resizable=0;points=[];" vertex="1" connectable="0" parent="SA2f0OlAAsZFch_WnKpL-129">
          <mxGeometry x="0.16" y="2" relative="1" as="geometry">
            <mxPoint x="-11" y="-8" as="offset" />
          </mxGeometry>
        </mxCell>
        <mxCell id="SA2f0OlAAsZFch_WnKpL-131" value="&lt;font style=&quot;font-size: 12px&quot;&gt;A&lt;/font&gt;" style="ellipse;whiteSpace=wrap;html=1;aspect=fixed;fillColor=#d5e8d4;strokeColor=#82b366;" vertex="1" parent="1">
          <mxGeometry x="1320" y="559" width="29" height="29" as="geometry" />
        </mxCell>
        <mxCell id="SA2f0OlAAsZFch_WnKpL-132" value="" style="edgeStyle=none;rounded=0;orthogonalLoop=1;jettySize=auto;html=1;endArrow=none;endFill=0;" edge="1" parent="1" source="SA2f0OlAAsZFch_WnKpL-136" target="SA2f0OlAAsZFch_WnKpL-139">
          <mxGeometry relative="1" as="geometry" />
        </mxCell>
        <mxCell id="SA2f0OlAAsZFch_WnKpL-133" value="3" style="edgeLabel;html=1;align=center;verticalAlign=middle;resizable=0;points=[];" vertex="1" connectable="0" parent="SA2f0OlAAsZFch_WnKpL-132">
          <mxGeometry x="0.1281" y="1" relative="1" as="geometry">
            <mxPoint x="3" y="-12" as="offset" />
          </mxGeometry>
        </mxCell>
        <mxCell id="SA2f0OlAAsZFch_WnKpL-134" value="" style="edgeStyle=none;rounded=0;orthogonalLoop=1;jettySize=auto;html=1;endArrow=none;endFill=0;fillColor=#e51400;strokeColor=#B20000;strokeWidth=3;" edge="1" parent="1" source="SA2f0OlAAsZFch_WnKpL-136" target="SA2f0OlAAsZFch_WnKpL-153">
          <mxGeometry relative="1" as="geometry" />
        </mxCell>
        <mxCell id="SA2f0OlAAsZFch_WnKpL-135" value="1" style="edgeLabel;html=1;align=center;verticalAlign=middle;resizable=0;points=[];" vertex="1" connectable="0" parent="SA2f0OlAAsZFch_WnKpL-134">
          <mxGeometry x="-0.0103" y="1" relative="1" as="geometry">
            <mxPoint x="-8" y="-5" as="offset" />
          </mxGeometry>
        </mxCell>
        <mxCell id="SA2f0OlAAsZFch_WnKpL-136" value="B" style="ellipse;whiteSpace=wrap;html=1;aspect=fixed;fillColor=#d5e8d4;strokeColor=#82b366;" vertex="1" parent="1">
          <mxGeometry x="1399" y="530" width="29" height="29" as="geometry" />
        </mxCell>
        <mxCell id="SA2f0OlAAsZFch_WnKpL-137" style="edgeStyle=none;rounded=0;orthogonalLoop=1;jettySize=auto;html=1;exitX=0.5;exitY=1;exitDx=0;exitDy=0;entryX=0.367;entryY=0.03;entryDx=0;entryDy=0;endArrow=none;endFill=0;entryPerimeter=0;" edge="1" parent="1" source="SA2f0OlAAsZFch_WnKpL-139" target="SA2f0OlAAsZFch_WnKpL-142">
          <mxGeometry relative="1" as="geometry" />
        </mxCell>
        <mxCell id="SA2f0OlAAsZFch_WnKpL-138" value="5" style="edgeLabel;html=1;align=center;verticalAlign=middle;resizable=0;points=[];" vertex="1" connectable="0" parent="SA2f0OlAAsZFch_WnKpL-137">
          <mxGeometry x="0.2637" relative="1" as="geometry">
            <mxPoint x="7" y="-6" as="offset" />
          </mxGeometry>
        </mxCell>
        <mxCell id="SA2f0OlAAsZFch_WnKpL-139" value="E" style="ellipse;whiteSpace=wrap;html=1;aspect=fixed;fillColor=#e1d5e7;strokeColor=#9673a6;" vertex="1" parent="1">
          <mxGeometry x="1474" y="541" width="29" height="29" as="geometry" />
        </mxCell>
        <mxCell id="SA2f0OlAAsZFch_WnKpL-140" value="" style="edgeStyle=none;rounded=0;orthogonalLoop=1;jettySize=auto;html=1;endArrow=none;endFill=0;" edge="1" parent="1" source="SA2f0OlAAsZFch_WnKpL-142" target="SA2f0OlAAsZFch_WnKpL-149">
          <mxGeometry relative="1" as="geometry" />
        </mxCell>
        <mxCell id="SA2f0OlAAsZFch_WnKpL-141" value="8" style="edgeLabel;html=1;align=center;verticalAlign=middle;resizable=0;points=[];" vertex="1" connectable="0" parent="SA2f0OlAAsZFch_WnKpL-140">
          <mxGeometry x="-0.1766" y="-1" relative="1" as="geometry">
            <mxPoint x="1" y="11" as="offset" />
          </mxGeometry>
        </mxCell>
        <mxCell id="SA2f0OlAAsZFch_WnKpL-142" value="F" style="ellipse;whiteSpace=wrap;html=1;aspect=fixed;fillColor=#f8cecc;strokeColor=#b85450;" vertex="1" parent="1">
          <mxGeometry x="1489" y="616" width="29" height="29" as="geometry" />
        </mxCell>
        <mxCell id="SA2f0OlAAsZFch_WnKpL-143" value="" style="edgeStyle=none;rounded=0;orthogonalLoop=1;jettySize=auto;html=1;endArrow=none;endFill=0;" edge="1" parent="1" source="SA2f0OlAAsZFch_WnKpL-149" target="SA2f0OlAAsZFch_WnKpL-152">
          <mxGeometry relative="1" as="geometry" />
        </mxCell>
        <mxCell id="SA2f0OlAAsZFch_WnKpL-144" value="5" style="edgeLabel;html=1;align=center;verticalAlign=middle;resizable=0;points=[];" vertex="1" connectable="0" parent="SA2f0OlAAsZFch_WnKpL-143">
          <mxGeometry x="-0.0423" y="-1" relative="1" as="geometry">
            <mxPoint x="-3" y="13" as="offset" />
          </mxGeometry>
        </mxCell>
        <mxCell id="SA2f0OlAAsZFch_WnKpL-145" value="" style="edgeStyle=none;rounded=0;orthogonalLoop=1;jettySize=auto;html=1;endArrow=none;endFill=0;entryX=0.5;entryY=1;entryDx=0;entryDy=0;" edge="1" parent="1" source="SA2f0OlAAsZFch_WnKpL-149" target="SA2f0OlAAsZFch_WnKpL-136">
          <mxGeometry relative="1" as="geometry" />
        </mxCell>
        <mxCell id="SA2f0OlAAsZFch_WnKpL-146" value="7" style="edgeLabel;html=1;align=center;verticalAlign=middle;resizable=0;points=[];" vertex="1" connectable="0" parent="SA2f0OlAAsZFch_WnKpL-145">
          <mxGeometry x="0.0801" y="2" relative="1" as="geometry">
            <mxPoint x="-7" y="8" as="offset" />
          </mxGeometry>
        </mxCell>
        <mxCell id="SA2f0OlAAsZFch_WnKpL-147" value="" style="edgeStyle=none;rounded=0;orthogonalLoop=1;jettySize=auto;html=1;endArrow=none;endFill=0;strokeWidth=3;fillColor=#e51400;strokeColor=#B20000;" edge="1" parent="1" source="SA2f0OlAAsZFch_WnKpL-149" target="SA2f0OlAAsZFch_WnKpL-139">
          <mxGeometry relative="1" as="geometry" />
        </mxCell>
        <mxCell id="SA2f0OlAAsZFch_WnKpL-148" value="1" style="edgeLabel;html=1;align=center;verticalAlign=middle;resizable=0;points=[];" vertex="1" connectable="0" parent="SA2f0OlAAsZFch_WnKpL-147">
          <mxGeometry x="-0.0141" y="2" relative="1" as="geometry">
            <mxPoint x="-5" y="-9" as="offset" />
          </mxGeometry>
        </mxCell>
        <mxCell id="SA2f0OlAAsZFch_WnKpL-149" value="D" style="ellipse;whiteSpace=wrap;html=1;aspect=fixed;fillColor=#e1d5e7;strokeColor=#9673a6;" vertex="1" parent="1">
          <mxGeometry x="1418" y="622" width="29" height="29" as="geometry" />
        </mxCell>
        <mxCell id="SA2f0OlAAsZFch_WnKpL-150" value="" style="edgeStyle=none;rounded=0;orthogonalLoop=1;jettySize=auto;html=1;endArrow=none;endFill=0;" edge="1" parent="1" source="SA2f0OlAAsZFch_WnKpL-152" target="SA2f0OlAAsZFch_WnKpL-131">
          <mxGeometry relative="1" as="geometry" />
        </mxCell>
        <mxCell id="SA2f0OlAAsZFch_WnKpL-151" value="10" style="edgeLabel;html=1;align=center;verticalAlign=middle;resizable=0;points=[];" vertex="1" connectable="0" parent="SA2f0OlAAsZFch_WnKpL-150">
          <mxGeometry x="-0.0233" y="1" relative="1" as="geometry">
            <mxPoint x="-12" y="3" as="offset" />
          </mxGeometry>
        </mxCell>
        <mxCell id="SA2f0OlAAsZFch_WnKpL-152" value="C" style="ellipse;whiteSpace=wrap;html=1;aspect=fixed;fillColor=#ffe6cc;strokeColor=#d79b00;" vertex="1" parent="1">
          <mxGeometry x="1330" y="624" width="29" height="29" as="geometry" />
        </mxCell>
        <mxCell id="SA2f0OlAAsZFch_WnKpL-153" value="G" style="ellipse;whiteSpace=wrap;html=1;aspect=fixed;fillColor=#d5e8d4;strokeColor=#82b366;" vertex="1" parent="1">
          <mxGeometry x="1432" y="466" width="29" height="29" as="geometry" />
        </mxCell>
        <mxCell id="SA2f0OlAAsZFch_WnKpL-154" value="" style="shape=flexArrow;endArrow=classic;html=1;" edge="1" parent="1">
          <mxGeometry width="50" height="50" relative="1" as="geometry">
            <mxPoint x="1214" y="574" as="sourcePoint" />
            <mxPoint x="1295" y="574" as="targetPoint" />
          </mxGeometry>
        </mxCell>
        <mxCell id="SA2f0OlAAsZFch_WnKpL-155" value="" style="shape=flexArrow;endArrow=classic;html=1;" edge="1" parent="1">
          <mxGeometry width="50" height="50" relative="1" as="geometry">
            <mxPoint x="1432" y="682" as="sourcePoint" />
            <mxPoint x="1432" y="761" as="targetPoint" />
          </mxGeometry>
        </mxCell>
        <mxCell id="SA2f0OlAAsZFch_WnKpL-156" style="rounded=0;orthogonalLoop=1;jettySize=auto;html=1;endArrow=none;endFill=0;strokeWidth=3;fillColor=#e51400;strokeColor=#B20000;" edge="1" parent="1" source="SA2f0OlAAsZFch_WnKpL-158" target="SA2f0OlAAsZFch_WnKpL-163">
          <mxGeometry relative="1" as="geometry">
            <mxPoint x="1419.5" y="871" as="targetPoint" />
          </mxGeometry>
        </mxCell>
        <mxCell id="SA2f0OlAAsZFch_WnKpL-157" value="2" style="edgeLabel;html=1;align=center;verticalAlign=middle;resizable=0;points=[];" vertex="1" connectable="0" parent="SA2f0OlAAsZFch_WnKpL-156">
          <mxGeometry x="0.16" y="2" relative="1" as="geometry">
            <mxPoint x="-11" y="-8" as="offset" />
          </mxGeometry>
        </mxCell>
        <mxCell id="SA2f0OlAAsZFch_WnKpL-158" value="&lt;font style=&quot;font-size: 12px&quot;&gt;A&lt;/font&gt;" style="ellipse;whiteSpace=wrap;html=1;aspect=fixed;fillColor=#d5e8d4;strokeColor=#82b366;" vertex="1" parent="1">
          <mxGeometry x="1333.5" y="885" width="29" height="29" as="geometry" />
        </mxCell>
        <mxCell id="SA2f0OlAAsZFch_WnKpL-159" value="" style="edgeStyle=none;rounded=0;orthogonalLoop=1;jettySize=auto;html=1;endArrow=none;endFill=0;strokeWidth=3;fillColor=#e51400;strokeColor=#B20000;" edge="1" parent="1" source="SA2f0OlAAsZFch_WnKpL-163" target="SA2f0OlAAsZFch_WnKpL-166">
          <mxGeometry relative="1" as="geometry" />
        </mxCell>
        <mxCell id="SA2f0OlAAsZFch_WnKpL-160" value="3" style="edgeLabel;html=1;align=center;verticalAlign=middle;resizable=0;points=[];" vertex="1" connectable="0" parent="SA2f0OlAAsZFch_WnKpL-159">
          <mxGeometry x="0.1281" y="1" relative="1" as="geometry">
            <mxPoint x="3" y="-12" as="offset" />
          </mxGeometry>
        </mxCell>
        <mxCell id="SA2f0OlAAsZFch_WnKpL-161" value="" style="edgeStyle=none;rounded=0;orthogonalLoop=1;jettySize=auto;html=1;endArrow=none;endFill=0;fillColor=#e51400;strokeColor=#B20000;strokeWidth=3;" edge="1" parent="1" source="SA2f0OlAAsZFch_WnKpL-163" target="SA2f0OlAAsZFch_WnKpL-180">
          <mxGeometry relative="1" as="geometry" />
        </mxCell>
        <mxCell id="SA2f0OlAAsZFch_WnKpL-162" value="1" style="edgeLabel;html=1;align=center;verticalAlign=middle;resizable=0;points=[];" vertex="1" connectable="0" parent="SA2f0OlAAsZFch_WnKpL-161">
          <mxGeometry x="-0.0103" y="1" relative="1" as="geometry">
            <mxPoint x="-8" y="-5" as="offset" />
          </mxGeometry>
        </mxCell>
        <mxCell id="SA2f0OlAAsZFch_WnKpL-163" value="B" style="ellipse;whiteSpace=wrap;html=1;aspect=fixed;fillColor=#d5e8d4;strokeColor=#82b366;" vertex="1" parent="1">
          <mxGeometry x="1412.5" y="856" width="29" height="29" as="geometry" />
        </mxCell>
        <mxCell id="SA2f0OlAAsZFch_WnKpL-164" style="edgeStyle=none;rounded=0;orthogonalLoop=1;jettySize=auto;html=1;exitX=0.5;exitY=1;exitDx=0;exitDy=0;entryX=0.367;entryY=0.03;entryDx=0;entryDy=0;endArrow=none;endFill=0;entryPerimeter=0;" edge="1" parent="1" source="SA2f0OlAAsZFch_WnKpL-166" target="SA2f0OlAAsZFch_WnKpL-169">
          <mxGeometry relative="1" as="geometry" />
        </mxCell>
        <mxCell id="SA2f0OlAAsZFch_WnKpL-165" value="5" style="edgeLabel;html=1;align=center;verticalAlign=middle;resizable=0;points=[];" vertex="1" connectable="0" parent="SA2f0OlAAsZFch_WnKpL-164">
          <mxGeometry x="0.2637" relative="1" as="geometry">
            <mxPoint x="7" y="-6" as="offset" />
          </mxGeometry>
        </mxCell>
        <mxCell id="SA2f0OlAAsZFch_WnKpL-166" value="E" style="ellipse;whiteSpace=wrap;html=1;aspect=fixed;fillColor=#d5e8d4;strokeColor=#82b366;" vertex="1" parent="1">
          <mxGeometry x="1487.5" y="867" width="29" height="29" as="geometry" />
        </mxCell>
        <mxCell id="SA2f0OlAAsZFch_WnKpL-167" value="" style="edgeStyle=none;rounded=0;orthogonalLoop=1;jettySize=auto;html=1;endArrow=none;endFill=0;" edge="1" parent="1" source="SA2f0OlAAsZFch_WnKpL-169" target="SA2f0OlAAsZFch_WnKpL-176">
          <mxGeometry relative="1" as="geometry" />
        </mxCell>
        <mxCell id="SA2f0OlAAsZFch_WnKpL-168" value="8" style="edgeLabel;html=1;align=center;verticalAlign=middle;resizable=0;points=[];" vertex="1" connectable="0" parent="SA2f0OlAAsZFch_WnKpL-167">
          <mxGeometry x="-0.1766" y="-1" relative="1" as="geometry">
            <mxPoint x="1" y="11" as="offset" />
          </mxGeometry>
        </mxCell>
        <mxCell id="SA2f0OlAAsZFch_WnKpL-169" value="F" style="ellipse;whiteSpace=wrap;html=1;aspect=fixed;fillColor=#f8cecc;strokeColor=#b85450;" vertex="1" parent="1">
          <mxGeometry x="1502.5" y="942" width="29" height="29" as="geometry" />
        </mxCell>
        <mxCell id="SA2f0OlAAsZFch_WnKpL-170" value="" style="edgeStyle=none;rounded=0;orthogonalLoop=1;jettySize=auto;html=1;endArrow=none;endFill=0;" edge="1" parent="1" source="SA2f0OlAAsZFch_WnKpL-176" target="SA2f0OlAAsZFch_WnKpL-179">
          <mxGeometry relative="1" as="geometry" />
        </mxCell>
        <mxCell id="SA2f0OlAAsZFch_WnKpL-171" value="5" style="edgeLabel;html=1;align=center;verticalAlign=middle;resizable=0;points=[];" vertex="1" connectable="0" parent="SA2f0OlAAsZFch_WnKpL-170">
          <mxGeometry x="-0.0423" y="-1" relative="1" as="geometry">
            <mxPoint x="-3" y="13" as="offset" />
          </mxGeometry>
        </mxCell>
        <mxCell id="SA2f0OlAAsZFch_WnKpL-172" value="" style="edgeStyle=none;rounded=0;orthogonalLoop=1;jettySize=auto;html=1;endArrow=none;endFill=0;entryX=0.5;entryY=1;entryDx=0;entryDy=0;" edge="1" parent="1" source="SA2f0OlAAsZFch_WnKpL-176" target="SA2f0OlAAsZFch_WnKpL-163">
          <mxGeometry relative="1" as="geometry" />
        </mxCell>
        <mxCell id="SA2f0OlAAsZFch_WnKpL-173" value="7" style="edgeLabel;html=1;align=center;verticalAlign=middle;resizable=0;points=[];" vertex="1" connectable="0" parent="SA2f0OlAAsZFch_WnKpL-172">
          <mxGeometry x="0.0801" y="2" relative="1" as="geometry">
            <mxPoint x="-7" y="8" as="offset" />
          </mxGeometry>
        </mxCell>
        <mxCell id="SA2f0OlAAsZFch_WnKpL-174" value="" style="edgeStyle=none;rounded=0;orthogonalLoop=1;jettySize=auto;html=1;endArrow=none;endFill=0;strokeWidth=3;fillColor=#e51400;strokeColor=#B20000;" edge="1" parent="1" source="SA2f0OlAAsZFch_WnKpL-176" target="SA2f0OlAAsZFch_WnKpL-166">
          <mxGeometry relative="1" as="geometry" />
        </mxCell>
        <mxCell id="SA2f0OlAAsZFch_WnKpL-175" value="1" style="edgeLabel;html=1;align=center;verticalAlign=middle;resizable=0;points=[];" vertex="1" connectable="0" parent="SA2f0OlAAsZFch_WnKpL-174">
          <mxGeometry x="-0.0141" y="2" relative="1" as="geometry">
            <mxPoint x="-5" y="-9" as="offset" />
          </mxGeometry>
        </mxCell>
        <mxCell id="SA2f0OlAAsZFch_WnKpL-176" value="D" style="ellipse;whiteSpace=wrap;html=1;aspect=fixed;fillColor=#d5e8d4;strokeColor=#82b366;" vertex="1" parent="1">
          <mxGeometry x="1431.5" y="948" width="29" height="29" as="geometry" />
        </mxCell>
        <mxCell id="SA2f0OlAAsZFch_WnKpL-177" value="" style="edgeStyle=none;rounded=0;orthogonalLoop=1;jettySize=auto;html=1;endArrow=none;endFill=0;" edge="1" parent="1" source="SA2f0OlAAsZFch_WnKpL-179" target="SA2f0OlAAsZFch_WnKpL-158">
          <mxGeometry relative="1" as="geometry" />
        </mxCell>
        <mxCell id="SA2f0OlAAsZFch_WnKpL-178" value="10" style="edgeLabel;html=1;align=center;verticalAlign=middle;resizable=0;points=[];" vertex="1" connectable="0" parent="SA2f0OlAAsZFch_WnKpL-177">
          <mxGeometry x="-0.0233" y="1" relative="1" as="geometry">
            <mxPoint x="-12" y="3" as="offset" />
          </mxGeometry>
        </mxCell>
        <mxCell id="SA2f0OlAAsZFch_WnKpL-179" value="C" style="ellipse;whiteSpace=wrap;html=1;aspect=fixed;fillColor=#ffe6cc;strokeColor=#d79b00;" vertex="1" parent="1">
          <mxGeometry x="1343.5" y="950" width="29" height="29" as="geometry" />
        </mxCell>
        <mxCell id="SA2f0OlAAsZFch_WnKpL-180" value="G" style="ellipse;whiteSpace=wrap;html=1;aspect=fixed;fillColor=#d5e8d4;strokeColor=#82b366;" vertex="1" parent="1">
          <mxGeometry x="1445.5" y="792" width="29" height="29" as="geometry" />
        </mxCell>
        <mxCell id="SA2f0OlAAsZFch_WnKpL-181" value="" style="shape=flexArrow;endArrow=classic;html=1;" edge="1" parent="1">
          <mxGeometry width="50" height="50" relative="1" as="geometry">
            <mxPoint x="1294" y="905" as="sourcePoint" />
            <mxPoint x="1217" y="905" as="targetPoint" />
          </mxGeometry>
        </mxCell>
        <mxCell id="SA2f0OlAAsZFch_WnKpL-182" style="rounded=0;orthogonalLoop=1;jettySize=auto;html=1;endArrow=none;endFill=0;strokeWidth=3;fillColor=#e51400;strokeColor=#B20000;" edge="1" parent="1" source="SA2f0OlAAsZFch_WnKpL-184" target="SA2f0OlAAsZFch_WnKpL-189">
          <mxGeometry relative="1" as="geometry">
            <mxPoint x="1065.5" y="869" as="targetPoint" />
          </mxGeometry>
        </mxCell>
        <mxCell id="SA2f0OlAAsZFch_WnKpL-183" value="2" style="edgeLabel;html=1;align=center;verticalAlign=middle;resizable=0;points=[];" vertex="1" connectable="0" parent="SA2f0OlAAsZFch_WnKpL-182">
          <mxGeometry x="0.16" y="2" relative="1" as="geometry">
            <mxPoint x="-11" y="-8" as="offset" />
          </mxGeometry>
        </mxCell>
        <mxCell id="SA2f0OlAAsZFch_WnKpL-184" value="&lt;font style=&quot;font-size: 12px&quot;&gt;A&lt;/font&gt;" style="ellipse;whiteSpace=wrap;html=1;aspect=fixed;fillColor=#d5e8d4;strokeColor=#82b366;" vertex="1" parent="1">
          <mxGeometry x="979.5" y="883" width="29" height="29" as="geometry" />
        </mxCell>
        <mxCell id="SA2f0OlAAsZFch_WnKpL-185" value="" style="edgeStyle=none;rounded=0;orthogonalLoop=1;jettySize=auto;html=1;endArrow=none;endFill=0;strokeWidth=3;fillColor=#e51400;strokeColor=#B20000;" edge="1" parent="1" source="SA2f0OlAAsZFch_WnKpL-189" target="SA2f0OlAAsZFch_WnKpL-192">
          <mxGeometry relative="1" as="geometry" />
        </mxCell>
        <mxCell id="SA2f0OlAAsZFch_WnKpL-186" value="3" style="edgeLabel;html=1;align=center;verticalAlign=middle;resizable=0;points=[];" vertex="1" connectable="0" parent="SA2f0OlAAsZFch_WnKpL-185">
          <mxGeometry x="0.1281" y="1" relative="1" as="geometry">
            <mxPoint x="3" y="-12" as="offset" />
          </mxGeometry>
        </mxCell>
        <mxCell id="SA2f0OlAAsZFch_WnKpL-187" value="" style="edgeStyle=none;rounded=0;orthogonalLoop=1;jettySize=auto;html=1;endArrow=none;endFill=0;fillColor=#e51400;strokeColor=#B20000;strokeWidth=3;" edge="1" parent="1" source="SA2f0OlAAsZFch_WnKpL-189">
          <mxGeometry relative="1" as="geometry">
            <mxPoint x="1106.5" y="805" as="targetPoint" />
          </mxGeometry>
        </mxCell>
        <mxCell id="SA2f0OlAAsZFch_WnKpL-188" value="1" style="edgeLabel;html=1;align=center;verticalAlign=middle;resizable=0;points=[];" vertex="1" connectable="0" parent="SA2f0OlAAsZFch_WnKpL-187">
          <mxGeometry x="-0.0103" y="1" relative="1" as="geometry">
            <mxPoint x="-8" y="-5" as="offset" />
          </mxGeometry>
        </mxCell>
        <mxCell id="SA2f0OlAAsZFch_WnKpL-189" value="B" style="ellipse;whiteSpace=wrap;html=1;aspect=fixed;fillColor=#d5e8d4;strokeColor=#82b366;" vertex="1" parent="1">
          <mxGeometry x="1058.5" y="854" width="29" height="29" as="geometry" />
        </mxCell>
        <mxCell id="SA2f0OlAAsZFch_WnKpL-190" style="edgeStyle=none;rounded=0;orthogonalLoop=1;jettySize=auto;html=1;exitX=0.5;exitY=1;exitDx=0;exitDy=0;entryX=0.367;entryY=0.03;entryDx=0;entryDy=0;endArrow=none;endFill=0;entryPerimeter=0;" edge="1" parent="1" source="SA2f0OlAAsZFch_WnKpL-192" target="SA2f0OlAAsZFch_WnKpL-195">
          <mxGeometry relative="1" as="geometry" />
        </mxCell>
        <mxCell id="SA2f0OlAAsZFch_WnKpL-191" value="5" style="edgeLabel;html=1;align=center;verticalAlign=middle;resizable=0;points=[];" vertex="1" connectable="0" parent="SA2f0OlAAsZFch_WnKpL-190">
          <mxGeometry x="0.2637" relative="1" as="geometry">
            <mxPoint x="7" y="-6" as="offset" />
          </mxGeometry>
        </mxCell>
        <mxCell id="SA2f0OlAAsZFch_WnKpL-192" value="E" style="ellipse;whiteSpace=wrap;html=1;aspect=fixed;fillColor=#d5e8d4;strokeColor=#82b366;" vertex="1" parent="1">
          <mxGeometry x="1133.5" y="865" width="29" height="29" as="geometry" />
        </mxCell>
        <mxCell id="SA2f0OlAAsZFch_WnKpL-193" value="" style="edgeStyle=none;rounded=0;orthogonalLoop=1;jettySize=auto;html=1;endArrow=none;endFill=0;" edge="1" parent="1" source="SA2f0OlAAsZFch_WnKpL-195" target="SA2f0OlAAsZFch_WnKpL-202">
          <mxGeometry relative="1" as="geometry" />
        </mxCell>
        <mxCell id="SA2f0OlAAsZFch_WnKpL-194" value="8" style="edgeLabel;html=1;align=center;verticalAlign=middle;resizable=0;points=[];" vertex="1" connectable="0" parent="SA2f0OlAAsZFch_WnKpL-193">
          <mxGeometry x="-0.1766" y="-1" relative="1" as="geometry">
            <mxPoint x="1" y="11" as="offset" />
          </mxGeometry>
        </mxCell>
        <mxCell id="SA2f0OlAAsZFch_WnKpL-195" value="F" style="ellipse;whiteSpace=wrap;html=1;aspect=fixed;fillColor=#f8cecc;strokeColor=#b85450;" vertex="1" parent="1">
          <mxGeometry x="1148.5" y="940" width="29" height="29" as="geometry" />
        </mxCell>
        <mxCell id="SA2f0OlAAsZFch_WnKpL-196" value="" style="edgeStyle=none;rounded=0;orthogonalLoop=1;jettySize=auto;html=1;endArrow=none;endFill=0;strokeWidth=3;fillColor=#e51400;strokeColor=#B20000;" edge="1" parent="1" source="SA2f0OlAAsZFch_WnKpL-202" target="SA2f0OlAAsZFch_WnKpL-205">
          <mxGeometry relative="1" as="geometry" />
        </mxCell>
        <mxCell id="SA2f0OlAAsZFch_WnKpL-197" value="5" style="edgeLabel;html=1;align=center;verticalAlign=middle;resizable=0;points=[];" vertex="1" connectable="0" parent="SA2f0OlAAsZFch_WnKpL-196">
          <mxGeometry x="-0.0423" y="-1" relative="1" as="geometry">
            <mxPoint x="-3" y="13" as="offset" />
          </mxGeometry>
        </mxCell>
        <mxCell id="SA2f0OlAAsZFch_WnKpL-198" value="" style="edgeStyle=none;rounded=0;orthogonalLoop=1;jettySize=auto;html=1;endArrow=none;endFill=0;entryX=0.5;entryY=1;entryDx=0;entryDy=0;" edge="1" parent="1" source="SA2f0OlAAsZFch_WnKpL-202" target="SA2f0OlAAsZFch_WnKpL-189">
          <mxGeometry relative="1" as="geometry" />
        </mxCell>
        <mxCell id="SA2f0OlAAsZFch_WnKpL-199" value="7" style="edgeLabel;html=1;align=center;verticalAlign=middle;resizable=0;points=[];" vertex="1" connectable="0" parent="SA2f0OlAAsZFch_WnKpL-198">
          <mxGeometry x="0.0801" y="2" relative="1" as="geometry">
            <mxPoint x="-7" y="8" as="offset" />
          </mxGeometry>
        </mxCell>
        <mxCell id="SA2f0OlAAsZFch_WnKpL-200" value="" style="edgeStyle=none;rounded=0;orthogonalLoop=1;jettySize=auto;html=1;endArrow=none;endFill=0;strokeWidth=3;fillColor=#e51400;strokeColor=#B20000;" edge="1" parent="1" source="SA2f0OlAAsZFch_WnKpL-202" target="SA2f0OlAAsZFch_WnKpL-192">
          <mxGeometry relative="1" as="geometry" />
        </mxCell>
        <mxCell id="SA2f0OlAAsZFch_WnKpL-201" value="1" style="edgeLabel;html=1;align=center;verticalAlign=middle;resizable=0;points=[];" vertex="1" connectable="0" parent="SA2f0OlAAsZFch_WnKpL-200">
          <mxGeometry x="-0.0141" y="2" relative="1" as="geometry">
            <mxPoint x="-5" y="-9" as="offset" />
          </mxGeometry>
        </mxCell>
        <mxCell id="SA2f0OlAAsZFch_WnKpL-202" value="D" style="ellipse;whiteSpace=wrap;html=1;aspect=fixed;fillColor=#d5e8d4;strokeColor=#82b366;" vertex="1" parent="1">
          <mxGeometry x="1077.5" y="946" width="29" height="29" as="geometry" />
        </mxCell>
        <mxCell id="SA2f0OlAAsZFch_WnKpL-203" value="" style="edgeStyle=none;rounded=0;orthogonalLoop=1;jettySize=auto;html=1;endArrow=none;endFill=0;" edge="1" parent="1" source="SA2f0OlAAsZFch_WnKpL-205" target="SA2f0OlAAsZFch_WnKpL-184">
          <mxGeometry relative="1" as="geometry" />
        </mxCell>
        <mxCell id="SA2f0OlAAsZFch_WnKpL-204" value="10" style="edgeLabel;html=1;align=center;verticalAlign=middle;resizable=0;points=[];" vertex="1" connectable="0" parent="SA2f0OlAAsZFch_WnKpL-203">
          <mxGeometry x="-0.0233" y="1" relative="1" as="geometry">
            <mxPoint x="-12" y="3" as="offset" />
          </mxGeometry>
        </mxCell>
        <mxCell id="SA2f0OlAAsZFch_WnKpL-205" value="C" style="ellipse;whiteSpace=wrap;html=1;aspect=fixed;fillColor=#d5e8d4;strokeColor=#82b366;" vertex="1" parent="1">
          <mxGeometry x="989.5" y="948" width="29" height="29" as="geometry" />
        </mxCell>
        <mxCell id="SA2f0OlAAsZFch_WnKpL-206" value="G" style="ellipse;whiteSpace=wrap;html=1;aspect=fixed;fillColor=#d5e8d4;strokeColor=#82b366;" vertex="1" parent="1">
          <mxGeometry x="1091.5" y="790" width="29" height="29" as="geometry" />
        </mxCell>
        <mxCell id="SA2f0OlAAsZFch_WnKpL-207" value="" style="shape=flexArrow;endArrow=classic;html=1;" edge="1" parent="1">
          <mxGeometry width="50" height="50" relative="1" as="geometry">
            <mxPoint x="942" y="896" as="sourcePoint" />
            <mxPoint x="865" y="896" as="targetPoint" />
          </mxGeometry>
        </mxCell>
        <mxCell id="SA2f0OlAAsZFch_WnKpL-208" style="rounded=0;orthogonalLoop=1;jettySize=auto;html=1;endArrow=none;endFill=0;strokeWidth=3;fillColor=#e51400;strokeColor=#B20000;" edge="1" parent="1" source="SA2f0OlAAsZFch_WnKpL-210" target="SA2f0OlAAsZFch_WnKpL-215">
          <mxGeometry relative="1" as="geometry">
            <mxPoint x="704.5" y="867" as="targetPoint" />
          </mxGeometry>
        </mxCell>
        <mxCell id="SA2f0OlAAsZFch_WnKpL-209" value="2" style="edgeLabel;html=1;align=center;verticalAlign=middle;resizable=0;points=[];" vertex="1" connectable="0" parent="SA2f0OlAAsZFch_WnKpL-208">
          <mxGeometry x="0.16" y="2" relative="1" as="geometry">
            <mxPoint x="-11" y="-8" as="offset" />
          </mxGeometry>
        </mxCell>
        <mxCell id="SA2f0OlAAsZFch_WnKpL-210" value="&lt;font style=&quot;font-size: 12px&quot;&gt;A&lt;/font&gt;" style="ellipse;whiteSpace=wrap;html=1;aspect=fixed;fillColor=#d5e8d4;strokeColor=#82b366;" vertex="1" parent="1">
          <mxGeometry x="618.5" y="881" width="29" height="29" as="geometry" />
        </mxCell>
        <mxCell id="SA2f0OlAAsZFch_WnKpL-211" value="" style="edgeStyle=none;rounded=0;orthogonalLoop=1;jettySize=auto;html=1;endArrow=none;endFill=0;strokeWidth=3;fillColor=#e51400;strokeColor=#B20000;" edge="1" parent="1" source="SA2f0OlAAsZFch_WnKpL-215" target="SA2f0OlAAsZFch_WnKpL-218">
          <mxGeometry relative="1" as="geometry" />
        </mxCell>
        <mxCell id="SA2f0OlAAsZFch_WnKpL-212" value="3" style="edgeLabel;html=1;align=center;verticalAlign=middle;resizable=0;points=[];" vertex="1" connectable="0" parent="SA2f0OlAAsZFch_WnKpL-211">
          <mxGeometry x="0.1281" y="1" relative="1" as="geometry">
            <mxPoint x="3" y="-12" as="offset" />
          </mxGeometry>
        </mxCell>
        <mxCell id="SA2f0OlAAsZFch_WnKpL-213" value="" style="edgeStyle=none;rounded=0;orthogonalLoop=1;jettySize=auto;html=1;endArrow=none;endFill=0;fillColor=#e51400;strokeColor=#B20000;strokeWidth=3;" edge="1" parent="1" source="SA2f0OlAAsZFch_WnKpL-215" target="SA2f0OlAAsZFch_WnKpL-232">
          <mxGeometry relative="1" as="geometry" />
        </mxCell>
        <mxCell id="SA2f0OlAAsZFch_WnKpL-214" value="1" style="edgeLabel;html=1;align=center;verticalAlign=middle;resizable=0;points=[];" vertex="1" connectable="0" parent="SA2f0OlAAsZFch_WnKpL-213">
          <mxGeometry x="-0.0103" y="1" relative="1" as="geometry">
            <mxPoint x="-8" y="-5" as="offset" />
          </mxGeometry>
        </mxCell>
        <mxCell id="SA2f0OlAAsZFch_WnKpL-215" value="B" style="ellipse;whiteSpace=wrap;html=1;aspect=fixed;fillColor=#d5e8d4;strokeColor=#82b366;" vertex="1" parent="1">
          <mxGeometry x="697.5" y="852" width="29" height="29" as="geometry" />
        </mxCell>
        <mxCell id="SA2f0OlAAsZFch_WnKpL-216" style="edgeStyle=none;rounded=0;orthogonalLoop=1;jettySize=auto;html=1;exitX=0.5;exitY=1;exitDx=0;exitDy=0;entryX=0.367;entryY=0.03;entryDx=0;entryDy=0;endArrow=none;endFill=0;entryPerimeter=0;strokeWidth=3;fillColor=#e51400;strokeColor=#B20000;" edge="1" parent="1" source="SA2f0OlAAsZFch_WnKpL-218" target="SA2f0OlAAsZFch_WnKpL-221">
          <mxGeometry relative="1" as="geometry" />
        </mxCell>
        <mxCell id="SA2f0OlAAsZFch_WnKpL-217" value="5" style="edgeLabel;html=1;align=center;verticalAlign=middle;resizable=0;points=[];" vertex="1" connectable="0" parent="SA2f0OlAAsZFch_WnKpL-216">
          <mxGeometry x="0.2637" relative="1" as="geometry">
            <mxPoint x="7" y="-6" as="offset" />
          </mxGeometry>
        </mxCell>
        <mxCell id="SA2f0OlAAsZFch_WnKpL-218" value="E" style="ellipse;whiteSpace=wrap;html=1;aspect=fixed;fillColor=#d5e8d4;strokeColor=#82b366;" vertex="1" parent="1">
          <mxGeometry x="772.5" y="863" width="29" height="29" as="geometry" />
        </mxCell>
        <mxCell id="SA2f0OlAAsZFch_WnKpL-219" value="" style="edgeStyle=none;rounded=0;orthogonalLoop=1;jettySize=auto;html=1;endArrow=none;endFill=0;" edge="1" parent="1" source="SA2f0OlAAsZFch_WnKpL-221" target="SA2f0OlAAsZFch_WnKpL-228">
          <mxGeometry relative="1" as="geometry" />
        </mxCell>
        <mxCell id="SA2f0OlAAsZFch_WnKpL-220" value="8" style="edgeLabel;html=1;align=center;verticalAlign=middle;resizable=0;points=[];" vertex="1" connectable="0" parent="SA2f0OlAAsZFch_WnKpL-219">
          <mxGeometry x="-0.1766" y="-1" relative="1" as="geometry">
            <mxPoint x="1" y="11" as="offset" />
          </mxGeometry>
        </mxCell>
        <mxCell id="SA2f0OlAAsZFch_WnKpL-221" value="F" style="ellipse;whiteSpace=wrap;html=1;aspect=fixed;fillColor=#d5e8d4;strokeColor=#82b366;" vertex="1" parent="1">
          <mxGeometry x="787.5" y="938" width="29" height="29" as="geometry" />
        </mxCell>
        <mxCell id="SA2f0OlAAsZFch_WnKpL-222" value="" style="edgeStyle=none;rounded=0;orthogonalLoop=1;jettySize=auto;html=1;endArrow=none;endFill=0;strokeWidth=3;fillColor=#e51400;strokeColor=#B20000;" edge="1" parent="1" source="SA2f0OlAAsZFch_WnKpL-228" target="SA2f0OlAAsZFch_WnKpL-231">
          <mxGeometry relative="1" as="geometry" />
        </mxCell>
        <mxCell id="SA2f0OlAAsZFch_WnKpL-223" value="5" style="edgeLabel;html=1;align=center;verticalAlign=middle;resizable=0;points=[];" vertex="1" connectable="0" parent="SA2f0OlAAsZFch_WnKpL-222">
          <mxGeometry x="-0.0423" y="-1" relative="1" as="geometry">
            <mxPoint x="-3" y="13" as="offset" />
          </mxGeometry>
        </mxCell>
        <mxCell id="SA2f0OlAAsZFch_WnKpL-224" value="" style="edgeStyle=none;rounded=0;orthogonalLoop=1;jettySize=auto;html=1;endArrow=none;endFill=0;entryX=0.5;entryY=1;entryDx=0;entryDy=0;" edge="1" parent="1" source="SA2f0OlAAsZFch_WnKpL-228" target="SA2f0OlAAsZFch_WnKpL-215">
          <mxGeometry relative="1" as="geometry" />
        </mxCell>
        <mxCell id="SA2f0OlAAsZFch_WnKpL-225" value="7" style="edgeLabel;html=1;align=center;verticalAlign=middle;resizable=0;points=[];" vertex="1" connectable="0" parent="SA2f0OlAAsZFch_WnKpL-224">
          <mxGeometry x="0.0801" y="2" relative="1" as="geometry">
            <mxPoint x="-7" y="8" as="offset" />
          </mxGeometry>
        </mxCell>
        <mxCell id="SA2f0OlAAsZFch_WnKpL-226" value="" style="edgeStyle=none;rounded=0;orthogonalLoop=1;jettySize=auto;html=1;endArrow=none;endFill=0;strokeWidth=3;fillColor=#e51400;strokeColor=#B20000;" edge="1" parent="1" source="SA2f0OlAAsZFch_WnKpL-228" target="SA2f0OlAAsZFch_WnKpL-218">
          <mxGeometry relative="1" as="geometry" />
        </mxCell>
        <mxCell id="SA2f0OlAAsZFch_WnKpL-227" value="1" style="edgeLabel;html=1;align=center;verticalAlign=middle;resizable=0;points=[];" vertex="1" connectable="0" parent="SA2f0OlAAsZFch_WnKpL-226">
          <mxGeometry x="-0.0141" y="2" relative="1" as="geometry">
            <mxPoint x="-5" y="-9" as="offset" />
          </mxGeometry>
        </mxCell>
        <mxCell id="SA2f0OlAAsZFch_WnKpL-228" value="D" style="ellipse;whiteSpace=wrap;html=1;aspect=fixed;fillColor=#d5e8d4;strokeColor=#82b366;" vertex="1" parent="1">
          <mxGeometry x="716.5" y="944" width="29" height="29" as="geometry" />
        </mxCell>
        <mxCell id="SA2f0OlAAsZFch_WnKpL-229" value="" style="edgeStyle=none;rounded=0;orthogonalLoop=1;jettySize=auto;html=1;endArrow=none;endFill=0;" edge="1" parent="1" source="SA2f0OlAAsZFch_WnKpL-231" target="SA2f0OlAAsZFch_WnKpL-210">
          <mxGeometry relative="1" as="geometry" />
        </mxCell>
        <mxCell id="SA2f0OlAAsZFch_WnKpL-230" value="10" style="edgeLabel;html=1;align=center;verticalAlign=middle;resizable=0;points=[];" vertex="1" connectable="0" parent="SA2f0OlAAsZFch_WnKpL-229">
          <mxGeometry x="-0.0233" y="1" relative="1" as="geometry">
            <mxPoint x="-12" y="3" as="offset" />
          </mxGeometry>
        </mxCell>
        <mxCell id="SA2f0OlAAsZFch_WnKpL-231" value="C" style="ellipse;whiteSpace=wrap;html=1;aspect=fixed;fillColor=#d5e8d4;strokeColor=#82b366;" vertex="1" parent="1">
          <mxGeometry x="628.5" y="946" width="29" height="29" as="geometry" />
        </mxCell>
        <mxCell id="SA2f0OlAAsZFch_WnKpL-232" value="G" style="ellipse;whiteSpace=wrap;html=1;aspect=fixed;fillColor=#d5e8d4;strokeColor=#82b366;" vertex="1" parent="1">
          <mxGeometry x="730.5" y="788" width="29" height="29" as="geometry" />
        </mxCell>
        <mxCell id="SA2f0OlAAsZFch_WnKpL-233" value="" style="shape=flexArrow;endArrow=classic;html=1;" edge="1" parent="1">
          <mxGeometry width="50" height="50" relative="1" as="geometry">
            <mxPoint x="593.5" y="896" as="sourcePoint" />
            <mxPoint x="516.5" y="896" as="targetPoint" />
          </mxGeometry>
        </mxCell>
        <mxCell id="SA2f0OlAAsZFch_WnKpL-234" style="rounded=0;orthogonalLoop=1;jettySize=auto;html=1;endArrow=none;endFill=0;strokeWidth=3;fillColor=#e51400;strokeColor=#B20000;" edge="1" parent="1" source="SA2f0OlAAsZFch_WnKpL-236" target="SA2f0OlAAsZFch_WnKpL-241">
          <mxGeometry relative="1" as="geometry">
            <mxPoint x="356" y="867" as="targetPoint" />
          </mxGeometry>
        </mxCell>
        <mxCell id="SA2f0OlAAsZFch_WnKpL-235" value="2" style="edgeLabel;html=1;align=center;verticalAlign=middle;resizable=0;points=[];" vertex="1" connectable="0" parent="SA2f0OlAAsZFch_WnKpL-234">
          <mxGeometry x="0.16" y="2" relative="1" as="geometry">
            <mxPoint x="-11" y="-8" as="offset" />
          </mxGeometry>
        </mxCell>
        <mxCell id="SA2f0OlAAsZFch_WnKpL-236" value="&lt;font style=&quot;font-size: 12px&quot;&gt;A&lt;/font&gt;" style="ellipse;whiteSpace=wrap;html=1;aspect=fixed;fillColor=#d5e8d4;strokeColor=#82b366;" vertex="1" parent="1">
          <mxGeometry x="270" y="881" width="29" height="29" as="geometry" />
        </mxCell>
        <mxCell id="SA2f0OlAAsZFch_WnKpL-237" value="" style="edgeStyle=none;rounded=0;orthogonalLoop=1;jettySize=auto;html=1;endArrow=none;endFill=0;strokeWidth=3;fillColor=#e51400;strokeColor=#B20000;" edge="1" parent="1" source="SA2f0OlAAsZFch_WnKpL-241" target="SA2f0OlAAsZFch_WnKpL-244">
          <mxGeometry relative="1" as="geometry" />
        </mxCell>
        <mxCell id="SA2f0OlAAsZFch_WnKpL-238" value="3" style="edgeLabel;html=1;align=center;verticalAlign=middle;resizable=0;points=[];" vertex="1" connectable="0" parent="SA2f0OlAAsZFch_WnKpL-237">
          <mxGeometry x="0.1281" y="1" relative="1" as="geometry">
            <mxPoint x="3" y="-12" as="offset" />
          </mxGeometry>
        </mxCell>
        <mxCell id="SA2f0OlAAsZFch_WnKpL-239" value="" style="edgeStyle=none;rounded=0;orthogonalLoop=1;jettySize=auto;html=1;endArrow=none;endFill=0;fillColor=#e51400;strokeColor=#B20000;strokeWidth=3;" edge="1" parent="1" source="SA2f0OlAAsZFch_WnKpL-241" target="SA2f0OlAAsZFch_WnKpL-258">
          <mxGeometry relative="1" as="geometry" />
        </mxCell>
        <mxCell id="SA2f0OlAAsZFch_WnKpL-240" value="1" style="edgeLabel;html=1;align=center;verticalAlign=middle;resizable=0;points=[];" vertex="1" connectable="0" parent="SA2f0OlAAsZFch_WnKpL-239">
          <mxGeometry x="-0.0103" y="1" relative="1" as="geometry">
            <mxPoint x="-8" y="-5" as="offset" />
          </mxGeometry>
        </mxCell>
        <mxCell id="SA2f0OlAAsZFch_WnKpL-241" value="B" style="ellipse;whiteSpace=wrap;html=1;aspect=fixed;fillColor=#d5e8d4;strokeColor=#82b366;" vertex="1" parent="1">
          <mxGeometry x="349" y="852" width="29" height="29" as="geometry" />
        </mxCell>
        <mxCell id="SA2f0OlAAsZFch_WnKpL-242" style="edgeStyle=none;rounded=0;orthogonalLoop=1;jettySize=auto;html=1;exitX=0.5;exitY=1;exitDx=0;exitDy=0;entryX=0.367;entryY=0.03;entryDx=0;entryDy=0;endArrow=none;endFill=0;entryPerimeter=0;strokeWidth=3;fillColor=#e51400;strokeColor=#B20000;" edge="1" parent="1" source="SA2f0OlAAsZFch_WnKpL-244" target="SA2f0OlAAsZFch_WnKpL-247">
          <mxGeometry relative="1" as="geometry" />
        </mxCell>
        <mxCell id="SA2f0OlAAsZFch_WnKpL-243" value="5" style="edgeLabel;html=1;align=center;verticalAlign=middle;resizable=0;points=[];" vertex="1" connectable="0" parent="SA2f0OlAAsZFch_WnKpL-242">
          <mxGeometry x="0.2637" relative="1" as="geometry">
            <mxPoint x="7" y="-6" as="offset" />
          </mxGeometry>
        </mxCell>
        <mxCell id="SA2f0OlAAsZFch_WnKpL-244" value="E" style="ellipse;whiteSpace=wrap;html=1;aspect=fixed;fillColor=#d5e8d4;strokeColor=#82b366;" vertex="1" parent="1">
          <mxGeometry x="424" y="863" width="29" height="29" as="geometry" />
        </mxCell>
        <mxCell id="SA2f0OlAAsZFch_WnKpL-247" value="F" style="ellipse;whiteSpace=wrap;html=1;aspect=fixed;fillColor=#d5e8d4;strokeColor=#82b366;" vertex="1" parent="1">
          <mxGeometry x="439" y="938" width="29" height="29" as="geometry" />
        </mxCell>
        <mxCell id="SA2f0OlAAsZFch_WnKpL-248" value="" style="edgeStyle=none;rounded=0;orthogonalLoop=1;jettySize=auto;html=1;endArrow=none;endFill=0;strokeWidth=3;fillColor=#e51400;strokeColor=#B20000;" edge="1" parent="1" source="SA2f0OlAAsZFch_WnKpL-254" target="SA2f0OlAAsZFch_WnKpL-257">
          <mxGeometry relative="1" as="geometry" />
        </mxCell>
        <mxCell id="SA2f0OlAAsZFch_WnKpL-249" value="5" style="edgeLabel;html=1;align=center;verticalAlign=middle;resizable=0;points=[];" vertex="1" connectable="0" parent="SA2f0OlAAsZFch_WnKpL-248">
          <mxGeometry x="-0.0423" y="-1" relative="1" as="geometry">
            <mxPoint x="-3" y="13" as="offset" />
          </mxGeometry>
        </mxCell>
        <mxCell id="SA2f0OlAAsZFch_WnKpL-252" value="" style="edgeStyle=none;rounded=0;orthogonalLoop=1;jettySize=auto;html=1;endArrow=none;endFill=0;strokeWidth=3;fillColor=#e51400;strokeColor=#B20000;" edge="1" parent="1" source="SA2f0OlAAsZFch_WnKpL-254" target="SA2f0OlAAsZFch_WnKpL-244">
          <mxGeometry relative="1" as="geometry" />
        </mxCell>
        <mxCell id="SA2f0OlAAsZFch_WnKpL-253" value="1" style="edgeLabel;html=1;align=center;verticalAlign=middle;resizable=0;points=[];" vertex="1" connectable="0" parent="SA2f0OlAAsZFch_WnKpL-252">
          <mxGeometry x="-0.0141" y="2" relative="1" as="geometry">
            <mxPoint x="-5" y="-9" as="offset" />
          </mxGeometry>
        </mxCell>
        <mxCell id="SA2f0OlAAsZFch_WnKpL-254" value="D" style="ellipse;whiteSpace=wrap;html=1;aspect=fixed;fillColor=#d5e8d4;strokeColor=#82b366;" vertex="1" parent="1">
          <mxGeometry x="368" y="944" width="29" height="29" as="geometry" />
        </mxCell>
        <mxCell id="SA2f0OlAAsZFch_WnKpL-257" value="C" style="ellipse;whiteSpace=wrap;html=1;aspect=fixed;fillColor=#d5e8d4;strokeColor=#82b366;" vertex="1" parent="1">
          <mxGeometry x="280" y="946" width="29" height="29" as="geometry" />
        </mxCell>
        <mxCell id="SA2f0OlAAsZFch_WnKpL-258" value="G" style="ellipse;whiteSpace=wrap;html=1;aspect=fixed;fillColor=#d5e8d4;strokeColor=#82b366;" vertex="1" parent="1">
          <mxGeometry x="382" y="788" width="29" height="29" as="geometry" />
        </mxCell>
      </root>
    </mxGraphModel>
  </diagram>
</mxfile>
